<?xml version="1.0" standalone="yes"?>

<svg version="1.1" viewBox="0.0 0.0 888.0 921.0" fill="none" stroke="none" stroke-linecap="square" stroke-miterlimit="10" xmlns="http://www.w3.org/2000/svg" xmlns:xlink="http://www.w3.org/1999/xlink"><clipPath id="p.0"><path d="m0 0l888.0 0l0 921.0l-888.0 0l0 -921.0z" clip-rule="nonzero"></path></clipPath><g clip-path="url(#p.0)"><path fill="#000000" fill-opacity="0.0" d="m0 0l888.87665 0l0 921.6982l-888.87665 0z" fill-rule="nonzero"></path><path fill="#ffc200" d="m260.70865 22.23097l0 0c143.98544 0 260.70865 99.99914 260.70865 223.35432q0 111.677185 0 223.35434q-130.35431 0 -260.70865 0l0 0c-143.98541 0 -260.70865 -99.999146 -260.70865 -223.35434l0 0c0 -123.35519 116.72324 -223.35432 260.70865 -223.35432z" fill-rule="nonzero"></path><path fill="#ffffff" d="m104.326675 161.60051l190.93657 -64.873726l171.58313 266.22806l-190.93655 64.87372z" fill-rule="nonzero"></path><path stroke="#000000" stroke-width="2.0" stroke-linejoin="round" stroke-linecap="butt" d="m104.326675 161.60051l190.93657 -64.873726l171.58313 266.22806l-190.93655 64.87372z" fill-rule="nonzero"></path><path fill="#0b5394" d="m606.2047 860.6063l0 0c-143.98541 0 -260.70865 -99.999146 -260.70865 -223.35437q0 -111.677124 0 -223.35431q130.35434 0 260.70865 0l0 0c143.98541 0 260.70868 99.999146 260.70868 223.35431l0 0c0 123.355225 -116.72327 223.35437 -260.70868 223.35437z" fill-rule="nonzero"></path><path fill="#000000" fill-opacity="0.0" d="m359.1496 573.9816l494.11023 0l0 217.35431l-494.11023 0z" fill-rule="nonzero"></path><path fill="#ffffff" d="m391.65784 613.7016l-0.0625 -2.109375q-1.28125 1.265625 -2.609375 1.828125q-1.3125 0.5625 -2.765625 0.5625q-1.34375 0 -2.296875 -0.34375q-0.953125 -0.34375 -1.578125 -0.9375q-0.609375 -0.609375 -0.90625 -1.421875q-0.28125 -0.8125 -0.28125 -1.765625q0 -2.359375 1.75 -3.6875q1.765625 -1.34375 5.203125 -1.34375l3.25 0l0 -1.375q0 -1.390625 -0.890625 -2.21875q-0.890625 -0.84375 -2.71875 -0.84375q-1.328125 0 -2.625 0.296875q-1.28125 0.296875 -2.65625 0.84375l0 -2.453125q0.515625 -0.1875 1.140625 -0.359375q0.640625 -0.1875 1.34375 -0.328125q0.703125 -0.140625 1.46875 -0.21875q0.765625 -0.09375 1.546875 -0.09375q1.421875 0 2.5625 0.3125q1.140625 0.3125 1.921875 0.953125q0.796875 0.640625 1.21875 1.609375q0.421875 0.96875 0.421875 2.28125l0 10.8125l-2.4375 0zm-0.296875 -7.140625l-3.453125 0q-1.015625 0 -1.75 0.203125q-0.734375 0.203125 -1.203125 0.578125q-0.46875 0.375 -0.703125 0.90625q-0.21875 0.515625 -0.21875 1.171875q0 0.453125 0.140625 0.875q0.140625 0.40625 0.453125 0.734375q0.3125 0.3125 0.8125 0.5q0.5 0.1875 1.21875 0.1875q0.9375 0 2.140625 -0.5625q1.21875 -0.578125 2.5625 -1.8125l0 -2.78125zm8.453125 -8.546875l2.484375 0l0.078125 2.890625q1.390625 -1.671875 2.734375 -2.421875q1.359375 -0.75 2.734375 -0.75q2.4375 0 3.6875 1.578125q1.265625 1.578125 1.171875 4.6875l-2.75 0q0.046875 -2.0625 -0.609375 -2.984375q-0.640625 -0.9375 -1.890625 -0.9375q-0.546875 0 -1.109375 0.203125q-0.546875 0.1875 -1.140625 0.625q-0.578125 0.421875 -1.234375 1.09375q-0.65625 0.671875 -1.40625 1.625l0 10.078125l-2.75 0l0 -15.6875zm17.59375 0l2.484375 0l0.078125 2.890625q1.390625 -1.671875 2.734375 -2.421875q1.359375 -0.75 2.734375 -0.75q2.4375 0 3.6875 1.578125q1.265625 1.578125 1.171875 4.6875l-2.75 0q0.046875 -2.0625 -0.609375 -2.984375q-0.640625 -0.9375 -1.890625 -0.9375q-0.546875 0 -1.109375 0.203125q-0.546875 0.1875 -1.140625 0.625q-0.578125 0.421875 -1.234375 1.09375q-0.65625 0.671875 -1.40625 1.625l0 10.078125l-2.75 0l0 -15.6875zm27.03125 15.6875l-0.0625 -2.109375q-1.28125 1.265625 -2.609375 1.828125q-1.3125 0.5625 -2.765625 0.5625q-1.34375 0 -2.296875 -0.34375q-0.953125 -0.34375 -1.578125 -0.9375q-0.609375 -0.609375 -0.90625 -1.421875q-0.28125 -0.8125 -0.28125 -1.765625q0 -2.359375 1.75 -3.6875q1.765625 -1.34375 5.203125 -1.34375l3.25 0l0 -1.375q0 -1.390625 -0.890625 -2.21875q-0.890625 -0.84375 -2.71875 -0.84375q-1.328125 0 -2.625 0.296875q-1.28125 0.296875 -2.65625 0.84375l0 -2.453125q0.515625 -0.1875 1.140625 -0.359375q0.640625 -0.1875 1.34375 -0.328125q0.703125 -0.140625 1.46875 -0.21875q0.765625 -0.09375 1.546875 -0.09375q1.421875 0 2.5625 0.3125q1.140625 0.3125 1.921875 0.953125q0.796875 0.640625 1.21875 1.609375q0.421875 0.96875 0.421875 2.28125l0 10.8125l-2.4375 0zm-0.296875 -7.140625l-3.453125 0q-1.015625 0 -1.75 0.203125q-0.734375 0.203125 -1.203125 0.578125q-0.46875 0.375 -0.703125 0.90625q-0.21875 0.515625 -0.21875 1.171875q0 0.453125 0.140625 0.875q0.140625 0.40625 0.453125 0.734375q0.3125 0.3125 0.8125 0.5q0.5 0.1875 1.21875 0.1875q0.9375 0 2.140625 -0.5625q1.21875 -0.578125 2.5625 -1.8125l0 -2.78125zm21.765625 -8.546875l-5.34375 14.03125q-0.828125 2.140625 -1.71875 3.6875q-0.875 1.546875 -1.921875 2.53125q-1.046875 1.0 -2.296875 1.46875q-1.25 0.46875 -2.796875 0.46875q-0.40625 0 -0.734375 -0.015625q-0.328125 -0.015625 -0.71875 -0.046875l0 -2.46875q0.34375 0.046875 0.75 0.078125q0.40625 0.046875 0.859375 0.046875q0.75 0 1.390625 -0.21875q0.65625 -0.21875 1.234375 -0.71875q0.578125 -0.484375 1.109375 -1.265625q0.53125 -0.78125 1.03125 -1.890625l-6.265625 -15.6875l3.09375 0l3.96875 10.375l0.796875 2.4375l0.90625 -2.5l3.671875 -10.3125l2.984375 0zm13.03125 22.25q-7.203125 -6.671875 -7.203125 -14.75q0 -1.890625 0.375 -3.765625q0.390625 -1.890625 1.234375 -3.78125q0.859375 -1.890625 2.25 -3.78125q1.40625 -1.890625 3.40625 -3.75l1.578125 1.609375q-6.0625 5.984375 -6.0625 13.265625q0 3.625 1.53125 6.96875q1.53125 3.34375 4.53125 6.3125l-1.640625 1.671875zm19.71875 -0.15625l-1.15625 0q-3.015625 0 -4.484375 -1.421875q-1.46875 -1.40625 -1.46875 -4.28125l0 -5.375q0 -0.765625 -0.171875 -1.359375q-0.171875 -0.609375 -0.609375 -1.015625q-0.421875 -0.421875 -1.140625 -0.640625q-0.703125 -0.21875 -1.78125 -0.21875l-0.671875 0l0 -2.171875l0.671875 0q1.140625 0 1.859375 -0.1875q0.71875 -0.1875 1.125 -0.5625q0.40625 -0.390625 0.5625 -0.984375q0.15625 -0.59375 0.15625 -1.40625l0 -3.703125q0 -1.3125 0.3125 -2.359375q0.3125 -1.0625 1.015625 -1.796875q0.71875 -0.75 1.84375 -1.140625q1.140625 -0.40625 2.78125 -0.40625l1.15625 0l0 2.1875l-0.921875 0q-3.625 0 -3.625 3.515625l0 3.640625q0 3.8125 -3.296875 4.296875q3.328125 0.328125 3.328125 4.28125l0 5.34375q0 3.578125 3.59375 3.578125l0.921875 0l0 2.1875zm14.171875 -28.484375l-0.453125 7.328125l-2.6875 0l-0.4375 -7.328125l3.578125 0zm23.25 4.03125l-6.046875 0l0 18.046875l-2.8125 0l0 -18.046875l-6.046875 0l0 -2.375l14.90625 0l0 2.375zm11.9375 -4.03125l-0.453125 7.328125l-2.6875 0l-0.4375 -7.328125l3.578125 0zm15.796875 6.109375q0.484375 0 0.921875 0.203125q0.4375 0.1875 0.765625 0.515625q0.328125 0.328125 0.515625 0.765625q0.203125 0.4375 0.203125 0.921875q0 0.5 -0.203125 0.9375q-0.1875 0.421875 -0.515625 0.75q-0.328125 0.328125 -0.765625 0.515625q-0.4375 0.1875 -0.921875 0.1875q-0.5 0 -0.9375 -0.1875q-0.421875 -0.1875 -0.75 -0.515625q-0.328125 -0.328125 -0.515625 -0.75q-0.1875 -0.4375 -0.1875 -0.9375q0 -0.484375 0.1875 -0.921875q0.1875 -0.4375 0.515625 -0.765625q0.328125 -0.328125 0.75 -0.515625q0.4375 -0.203125 0.9375 -0.203125zm0 11.453125q0.484375 0 0.921875 0.203125q0.4375 0.1875 0.765625 0.515625q0.328125 0.328125 0.515625 0.765625q0.203125 0.4375 0.203125 0.921875q0 0.5 -0.203125 0.9375q-0.1875 0.421875 -0.515625 0.75q-0.328125 0.328125 -0.765625 0.515625q-0.4375 0.1875 -0.921875 0.1875q-0.5 0 -0.9375 -0.1875q-0.421875 -0.1875 -0.75 -0.515625q-0.328125 -0.328125 -0.515625 -0.75q-0.1875 -0.4375 -0.1875 -0.9375q0 -0.484375 0.1875 -0.921875q0.1875 -0.4375 0.515625 -0.765625q0.328125 -0.328125 0.75 -0.515625q0.4375 -0.203125 0.9375 -0.203125zm39.484375 10.921875l-7.703125 0l0 -29.03125l7.703125 0l0 2.1875l-5.109375 0l0 24.65625l5.109375 0l0 2.1875zm21.265625 -10.921875l-3.484375 0l0 4.515625l-2.78125 0l0 -4.515625l-9.828125 0l0 -2.390625l8.703125 -13.515625l3.90625 0l0 13.515625l3.484375 0l0 2.390625zm-6.265625 -13.28125l-7.109375 10.890625l7.109375 0l0 -10.890625zm22.84375 17.796875l-13.453125 0l0 -2.4375l5.28125 -5.25q1.296875 -1.28125 2.109375 -2.21875q0.8125 -0.9375 1.265625 -1.703125q0.453125 -0.78125 0.609375 -1.46875q0.15625 -0.6875 0.15625 -1.484375q0 -0.75 -0.203125 -1.421875q-0.203125 -0.6875 -0.625 -1.203125q-0.421875 -0.515625 -1.09375 -0.8125q-0.671875 -0.296875 -1.609375 -0.296875q-1.296875 0 -2.359375 0.578125q-1.0625 0.578125 -1.953125 1.5l-1.5 -1.796875q1.15625 -1.21875 2.65625 -1.953125q1.515625 -0.734375 3.515625 -0.734375q1.359375 0 2.46875 0.40625q1.125 0.40625 1.9375 1.171875q0.8125 0.765625 1.25 1.875q0.453125 1.109375 0.453125 2.5q0 1.171875 -0.3125 2.171875q-0.3125 1.0 -0.953125 2.0q-0.625 0.984375 -1.59375 2.046875q-0.953125 1.0625 -2.265625 2.328125l-3.703125 3.609375l9.921875 0l0 2.59375zm5.5625 3.203125q0.796875 0.03125 1.546875 -0.140625q0.75 -0.171875 1.3125 -0.515625q0.578125 -0.328125 0.921875 -0.828125q0.34375 -0.5 0.34375 -1.140625q0 -0.65625 -0.234375 -1.0625q-0.21875 -0.40625 -0.5 -0.75q-0.28125 -0.34375 -0.515625 -0.734375q-0.21875 -0.390625 -0.21875 -1.046875q0 -0.328125 0.125 -0.6875q0.125 -0.359375 0.375 -0.65625q0.265625 -0.296875 0.65625 -0.484375q0.40625 -0.1875 0.953125 -0.1875q0.546875 0 1.046875 0.234375q0.515625 0.21875 0.890625 0.6875q0.390625 0.46875 0.609375 1.171875q0.234375 0.703125 0.234375 1.65625q0 1.296875 -0.484375 2.484375q-0.46875 1.203125 -1.421875 2.125q-0.9375 0.921875 -2.359375 1.46875q-1.40625 0.546875 -3.28125 0.546875l0 -2.140625z" fill-rule="nonzero"></path><path fill="#ffffff" d="m683.5016 610.67035q0.734375 0 1.234375 0.515625q0.5 0.5 0.5 1.21875q0 0.71875 -0.515625 1.234375q-0.5 0.5 -1.21875 0.5q-0.71875 0 -1.234375 -0.5q-0.5 -0.515625 -0.5 -1.234375q0 -0.734375 0.5 -1.234375q0.515625 -0.5 1.234375 -0.5zm10.671875 0q0.71875 0 1.21875 0.515625q0.515625 0.5 0.515625 1.21875q0 0.71875 -0.515625 1.234375q-0.5 0.5 -1.21875 0.5q-0.71875 0 -1.234375 -0.5q-0.5 -0.515625 -0.5 -1.234375q0 -0.734375 0.5 -1.234375q0.515625 -0.5 1.234375 -0.5zm10.671875 0q0.71875 0 1.21875 0.515625q0.515625 0.5 0.515625 1.21875q0 0.71875 -0.515625 1.234375q-0.5 0.5 -1.21875 0.5q-0.71875 0 -1.234375 -0.5q-0.5 -0.515625 -0.5 -1.234375q0 -0.734375 0.5 -1.234375q0.5 -0.5 1.234375 -0.5z" fill-rule="nonzero"></path><path fill="#ffffff" d="m713.8922 616.9047q0.796875 0.03125 1.546875 -0.140625q0.75 -0.171875 1.3125 -0.515625q0.578125 -0.328125 0.921875 -0.828125q0.34375 -0.5 0.34375 -1.140625q0 -0.65625 -0.234375 -1.0625q-0.21875 -0.40625 -0.5 -0.75q-0.28125 -0.34375 -0.515625 -0.734375q-0.21875 -0.390625 -0.21875 -1.046875q0 -0.328125 0.125 -0.6875q0.125 -0.359375 0.375 -0.65625q0.265625 -0.296875 0.65625 -0.484375q0.40625 -0.1875 0.953125 -0.1875q0.546875 0 1.046875 0.234375q0.515625 0.21875 0.890625 0.6875q0.390625 0.46875 0.609375 1.171875q0.234375 0.703125 0.234375 1.65625q0 1.296875 -0.484375 2.484375q-0.46875 1.203125 -1.421875 2.125q-0.9375 0.921875 -2.359375 1.46875q-1.40625 0.546875 -3.28125 0.546875l0 -2.140625zm48.234375 -7.71875l-3.484375 0l0 4.515625l-2.78125 0l0 -4.515625l-9.828125 0l0 -2.390625l8.703125 -13.515625l3.90625 0l0 13.515625l3.484375 0l0 2.390625zm-6.265625 -13.28125l-7.109375 10.890625l7.109375 0l0 -10.890625zm23.09375 11.328125q0 1.40625 -0.515625 2.640625q-0.5 1.234375 -1.4375 2.15625q-0.9375 0.90625 -2.265625 1.4375q-1.3125 0.515625 -2.921875 0.515625q-1.6875 0 -2.984375 -0.53125q-1.296875 -0.546875 -2.171875 -1.65625q-0.875 -1.125 -1.328125 -2.828125q-0.453125 -1.703125 -0.453125 -4.03125q0 -1.5625 0.203125 -3.03125q0.203125 -1.46875 0.671875 -2.765625q0.46875 -1.296875 1.25 -2.375q0.78125 -1.078125 1.9375 -1.84375q1.171875 -0.78125 2.75 -1.203125q1.578125 -0.4375 3.65625 -0.4375l2.015625 0l0 2.375l-2.1875 0q-1.828125 0 -3.171875 0.4375q-1.34375 0.4375 -2.25 1.234375q-0.90625 0.796875 -1.390625 1.921875q-0.484375 1.125 -0.609375 2.515625l-0.0625 0.640625q0.984375 -0.578125 2.265625 -0.921875q1.296875 -0.359375 2.796875 -0.359375q1.546875 0 2.703125 0.453125q1.171875 0.453125 1.9375 1.265625q0.78125 0.796875 1.171875 1.921875q0.390625 1.125 0.390625 2.46875zm-2.84375 0.171875q0 -0.9375 -0.234375 -1.6875q-0.21875 -0.765625 -0.703125 -1.28125q-0.484375 -0.53125 -1.234375 -0.8125q-0.734375 -0.296875 -1.765625 -0.296875q-0.59375 0 -1.203125 0.109375q-0.609375 0.109375 -1.203125 0.3125q-0.578125 0.1875 -1.109375 0.4375q-0.53125 0.25 -0.96875 0.53125q0 2.015625 0.28125 3.375q0.28125 1.34375 0.828125 2.15625q0.5625 0.8125 1.375 1.15625q0.8125 0.34375 1.875 0.34375q0.890625 0 1.625 -0.28125q0.75 -0.296875 1.28125 -0.859375q0.546875 -0.5625 0.84375 -1.359375q0.3125 -0.8125 0.3125 -1.84375zm16.640625 12.703125l-7.703125 0l0 -2.1875l5.078125 0l0 -24.65625l-5.078125 0l0 -2.1875l7.703125 0l0 29.03125zm8.96875 -29.03125l1.15625 0q3.015625 0 4.484375 1.421875q1.46875 1.40625 1.46875 4.28125l0 3.609375q0 0.765625 0.171875 1.375q0.171875 0.59375 0.59375 1.015625q0.4375 0.40625 1.15625 0.625q0.71875 0.21875 1.796875 0.21875l0.671875 0l0 2.171875l-0.671875 0q-1.140625 0 -1.875 0.1875q-0.71875 0.1875 -1.125 0.578125q-0.40625 0.375 -0.5625 0.96875q-0.15625 0.59375 -0.15625 1.40625l0 5.46875q0 1.3125 -0.3125 2.359375q-0.3125 1.0625 -1.015625 1.796875q-0.703125 0.75 -1.84375 1.140625q-1.140625 0.40625 -2.78125 0.40625l-1.15625 0l0 -2.1875l0.9375 0q3.609375 0 3.609375 -3.515625l0 -5.40625q0 -3.8125 3.296875 -4.28125q-3.328125 -0.359375 -3.328125 -4.296875l0 -3.578125q0 -3.578125 -3.578125 -3.578125l-0.9375 0l0 -2.1875zm17.734375 25.828125q0.796875 0.03125 1.546875 -0.140625q0.75 -0.171875 1.3125 -0.515625q0.578125 -0.328125 0.921875 -0.828125q0.34375 -0.5 0.34375 -1.140625q0 -0.65625 -0.234375 -1.0625q-0.21875 -0.40625 -0.5 -0.75q-0.28125 -0.34375 -0.515625 -0.734375q-0.21875 -0.390625 -0.21875 -1.046875q0 -0.328125 0.125 -0.6875q0.125 -0.359375 0.375 -0.65625q0.265625 -0.296875 0.65625 -0.484375q0.40625 -0.1875 0.953125 -0.1875q0.546875 0 1.046875 0.234375q0.515625 0.21875 0.890625 0.6875q0.390625 0.46875 0.609375 1.171875q0.234375 0.703125 0.234375 1.65625q0 1.296875 -0.484375 2.484375q-0.46875 1.203125 -1.421875 2.125q-0.9375 0.921875 -2.359375 1.46875q-1.40625 0.546875 -3.28125 0.546875l0 -2.140625z" fill-rule="nonzero"></path><path fill="#ffffff" d="m502.34534 644.186q0 -2.0 0.546875 -3.546875q0.546875 -1.5625 1.546875 -2.625q1.015625 -1.078125 2.421875 -1.625q1.421875 -0.5625 3.15625 -0.5625q0.75 0 1.46875 0.09375q0.734375 0.09375 1.4375 0.296875l0 -6.59375l2.734375 0l0 22.078125l-2.4375 0l-0.09375 -2.96875q-1.140625 1.65625 -2.46875 2.453125q-1.328125 0.796875 -2.875 0.796875q-1.34375 0 -2.375 -0.5625q-1.015625 -0.5625 -1.703125 -1.578125q-0.671875 -1.03125 -1.015625 -2.46875q-0.34375 -1.4375 -0.34375 -3.1875zm2.78125 -0.171875q0 2.84375 0.828125 4.25q0.84375 1.390625 2.375 1.390625q1.03125 0 2.171875 -0.921875q1.15625 -0.921875 2.421875 -2.734375l0 -7.28125q-0.671875 -0.3125 -1.484375 -0.46875q-0.8125 -0.171875 -1.609375 -0.171875q-2.21875 0 -3.46875 1.4375q-1.234375 1.4375 -1.234375 4.5zm28.25 7.46875q-0.921875 0.234375 -1.90625 0.328125q-0.984375 0.109375 -2.0 0.109375q-2.953125 0 -4.40625 -1.328125q-1.453125 -1.34375 -1.453125 -4.109375l0 -8.1875l-4.390625 0l0 -2.28125l4.390625 0l0 -4.3125l2.71875 -0.703125l0 5.015625l7.046875 0l0 2.28125l-7.046875 0l0 7.96875q0 1.6875 0.890625 2.53125q0.90625 0.828125 2.65625 0.828125q0.75 0 1.640625 -0.109375q0.890625 -0.125 1.859375 -0.375l0 2.34375zm18.90625 -15.46875l-5.34375 14.03125q-0.828125 2.140625 -1.71875 3.6875q-0.875 1.546875 -1.921875 2.53125q-1.046875 1.0 -2.296875 1.46875q-1.25 0.46875 -2.796875 0.46875q-0.40625 0 -0.734375 -0.015625q-0.328125 -0.015625 -0.71875 -0.046875l0 -2.46875q0.34375 0.046875 0.75 0.078125q0.40625 0.046875 0.859375 0.046875q0.75 0 1.390625 -0.21875q0.65625 -0.21875 1.234375 -0.71875q0.578125 -0.484375 1.109375 -1.265625q0.53125 -0.78125 1.03125 -1.890625l-6.265625 -15.6875l3.09375 0l3.96875 10.375l0.796875 2.4375l0.90625 -2.5l3.671875 -10.3125l2.984375 0zm17.046875 7.5625q0 2.09375 -0.59375 3.65625q-0.578125 1.5625 -1.609375 2.59375q-1.03125 1.03125 -2.4375 1.546875q-1.40625 0.515625 -3.046875 0.515625q-0.75 0 -1.5 -0.078125q-0.734375 -0.078125 -1.5 -0.265625l0 6.5625l-2.71875 0l0 -22.09375l2.421875 0l0.171875 2.625q1.171875 -1.609375 2.5 -2.25q1.328125 -0.65625 2.875 -0.65625q1.34375 0 2.359375 0.5625q1.015625 0.5625 1.703125 1.59375q0.6875 1.015625 1.03125 2.46875q0.34375 1.4375 0.34375 3.21875zm-2.78125 0.125q0 -1.234375 -0.1875 -2.265625q-0.171875 -1.03125 -0.5625 -1.765625q-0.390625 -0.734375 -1.0 -1.140625q-0.609375 -0.421875 -1.453125 -0.421875q-0.515625 0 -1.046875 0.171875q-0.53125 0.15625 -1.109375 0.546875q-0.5625 0.375 -1.203125 1.015625q-0.625 0.625 -1.34375 1.5625l0 7.609375q0.75 0.3125 1.578125 0.5q0.828125 0.171875 1.625 0.171875q2.203125 0 3.453125 -1.484375q1.25 -1.5 1.25 -4.5zm20.21875 -0.671875q0 0.578125 -0.015625 0.96875q-0.015625 0.390625 -0.046875 0.734375l-11.015625 0q0 2.40625 1.34375 3.703125q1.34375 1.28125 3.875 1.28125q0.6875 0 1.375 -0.046875q0.6875 -0.0625 1.328125 -0.15625q0.640625 -0.09375 1.21875 -0.203125q0.59375 -0.125 1.09375 -0.265625l0 2.234375q-1.109375 0.3125 -2.515625 0.5q-1.390625 0.203125 -2.890625 0.203125q-2.015625 0 -3.46875 -0.546875q-1.453125 -0.546875 -2.390625 -1.578125q-0.921875 -1.046875 -1.375 -2.546875q-0.4375 -1.515625 -0.4375 -3.421875q0 -1.65625 0.46875 -3.125q0.484375 -1.484375 1.390625 -2.59375q0.921875 -1.125 2.25 -1.78125q1.328125 -0.65625 3.015625 -0.65625q1.640625 0 2.90625 0.515625q1.265625 0.515625 2.125 1.46875q0.875 0.9375 1.3125 2.296875q0.453125 1.34375 0.453125 3.015625zm-2.828125 -0.390625q0.046875 -1.046875 -0.203125 -1.90625q-0.25 -0.875 -0.78125 -1.5q-0.515625 -0.625 -1.296875 -0.96875q-0.78125 -0.359375 -1.8125 -0.359375q-0.890625 0 -1.625 0.34375q-0.734375 0.34375 -1.265625 0.96875q-0.53125 0.625 -0.859375 1.5q-0.328125 0.875 -0.40625 1.921875l8.25 0zm20.1875 -1.03125l-13.4375 0l0 -2.296875l13.4375 0l0 2.296875zm0 5.4375l-13.4375 0l0 -2.296875l13.4375 0l0 2.296875zm18.234375 -3.3125q0 1.828125 -0.515625 3.359375q-0.515625 1.515625 -1.484375 2.609375q-0.96875 1.078125 -2.359375 1.6875q-1.390625 0.59375 -3.15625 0.59375q-1.6875 0 -3.03125 -0.515625q-1.328125 -0.53125 -2.265625 -1.546875q-0.921875 -1.015625 -1.421875 -2.515625q-0.484375 -1.5 -0.484375 -3.453125q0 -1.828125 0.515625 -3.328125q0.515625 -1.515625 1.484375 -2.59375q0.96875 -1.09375 2.359375 -1.6875q1.390625 -0.609375 3.15625 -0.609375q1.6875 0 3.015625 0.53125q1.34375 0.515625 2.265625 1.53125q0.9375 1.0 1.421875 2.5q0.5 1.5 0.5 3.4375zm-2.78125 0.125q0 -1.453125 -0.328125 -2.53125q-0.3125 -1.09375 -0.90625 -1.8125q-0.59375 -0.734375 -1.453125 -1.09375q-0.84375 -0.375 -1.890625 -0.375q-1.21875 0 -2.09375 0.484375q-0.859375 0.46875 -1.421875 1.265625q-0.546875 0.796875 -0.8125 1.859375q-0.25 1.046875 -0.25 2.203125q0 1.453125 0.3125 2.546875q0.328125 1.09375 0.921875 1.828125q0.59375 0.71875 1.4375 1.09375q0.84375 0.359375 1.90625 0.359375q1.21875 0 2.078125 -0.46875q0.875 -0.484375 1.421875 -1.28125q0.5625 -0.796875 0.8125 -1.84375q0.265625 -1.0625 0.265625 -2.234375zm20.125 -0.28125q0 1.953125 -0.546875 3.5q-0.53125 1.53125 -1.53125 2.609375q-0.984375 1.0625 -2.40625 1.640625q-1.421875 0.5625 -3.203125 0.5625q-1.390625 0 -2.84375 -0.265625q-1.453125 -0.265625 -2.875 -0.84375l0 -21.15625l2.71875 0l0 6.078125l-0.125 2.90625q1.171875 -1.578125 2.5 -2.21875q1.34375 -0.65625 2.875 -0.65625q1.34375 0 2.359375 0.5625q1.015625 0.5625 1.703125 1.59375q0.6875 1.015625 1.03125 2.46875q0.34375 1.4375 0.34375 3.21875zm-2.78125 0.125q0 -1.234375 -0.1875 -2.265625q-0.171875 -1.03125 -0.5625 -1.765625q-0.390625 -0.734375 -1.0 -1.140625q-0.609375 -0.421875 -1.453125 -0.421875q-0.515625 0 -1.046875 0.171875q-0.53125 0.15625 -1.109375 0.546875q-0.5625 0.375 -1.203125 1.015625q-0.625 0.625 -1.34375 1.5625l0 7.609375q0.796875 0.3125 1.625 0.5q0.828125 0.171875 1.578125 0.171875q0.9375 0 1.78125 -0.296875q0.859375 -0.296875 1.5 -0.984375q0.65625 -0.703125 1.03125 -1.84375q0.390625 -1.15625 0.390625 -2.859375zm17.59375 -7.6875l0 15.40625q0 1.640625 -0.46875 2.90625q-0.46875 1.28125 -1.34375 2.15625q-0.875 0.875 -2.15625 1.328125q-1.265625 0.453125 -2.859375 0.453125q-1.15625 0 -2.265625 -0.21875q-1.09375 -0.203125 -1.984375 -0.578125l0 -2.59375q0.484375 0.25 1.03125 0.453125q0.5625 0.203125 1.140625 0.34375q0.59375 0.140625 1.1875 0.203125q0.59375 0.078125 1.15625 0.078125q1.78125 0 2.796875 -1.125q1.015625 -1.125 1.015625 -3.3125l0 -13.25l-7.6875 0l0 -2.25l10.4375 0zm-1.640625 -6.578125q0.453125 0 0.84375 0.171875q0.390625 0.15625 0.671875 0.453125q0.296875 0.296875 0.453125 0.6875q0.171875 0.390625 0.171875 0.828125q0 0.453125 -0.171875 0.84375q-0.15625 0.375 -0.453125 0.671875q-0.28125 0.296875 -0.671875 0.46875q-0.390625 0.15625 -0.84375 0.15625q-0.453125 0 -0.84375 -0.15625q-0.390625 -0.171875 -0.6875 -0.46875q-0.28125 -0.296875 -0.453125 -0.671875q-0.15625 -0.390625 -0.15625 -0.84375q0 -0.4375 0.15625 -0.828125q0.171875 -0.390625 0.453125 -0.6875q0.296875 -0.296875 0.6875 -0.453125q0.390625 -0.171875 0.84375 -0.171875zm21.859375 13.59375q0 0.578125 -0.015625 0.96875q-0.015625 0.390625 -0.046875 0.734375l-11.015625 0q0 2.40625 1.34375 3.703125q1.34375 1.28125 3.875 1.28125q0.6875 0 1.375 -0.046875q0.6875 -0.0625 1.328125 -0.15625q0.640625 -0.09375 1.21875 -0.203125q0.59375 -0.125 1.09375 -0.265625l0 2.234375q-1.109375 0.3125 -2.515625 0.5q-1.390625 0.203125 -2.890625 0.203125q-2.015625 0 -3.46875 -0.546875q-1.453125 -0.546875 -2.390625 -1.578125q-0.921875 -1.046875 -1.375 -2.546875q-0.4375 -1.515625 -0.4375 -3.421875q0 -1.65625 0.46875 -3.125q0.484375 -1.484375 1.390625 -2.59375q0.921875 -1.125 2.25 -1.78125q1.328125 -0.65625 3.015625 -0.65625q1.640625 0 2.90625 0.515625q1.265625 0.515625 2.125 1.46875q0.875 0.9375 1.3125 2.296875q0.453125 1.34375 0.453125 3.015625zm-2.828125 -0.390625q0.046875 -1.046875 -0.203125 -1.90625q-0.25 -0.875 -0.78125 -1.5q-0.515625 -0.625 -1.296875 -0.96875q-0.78125 -0.359375 -1.8125 -0.359375q-0.890625 0 -1.625 0.34375q-0.734375 0.34375 -1.265625 0.96875q-0.53125 0.625 -0.859375 1.5q-0.328125 0.875 -0.40625 1.921875l8.25 0zm19.359375 8.484375q-1.0625 0.40625 -2.1875 0.59375q-1.109375 0.203125 -2.296875 0.203125q-3.71875 0 -5.734375 -2.015625q-2.0 -2.015625 -2.0 -5.890625q0 -1.859375 0.578125 -3.375q0.578125 -1.515625 1.625 -2.59375q1.046875 -1.078125 2.5 -1.65625q1.453125 -0.59375 3.203125 -0.59375q1.21875 0 2.28125 0.171875q1.0625 0.171875 2.03125 0.5625l0 2.59375q-1.015625 -0.53125 -2.078125 -0.765625q-1.046875 -0.25 -2.171875 -0.25q-1.046875 0 -1.984375 0.40625q-0.921875 0.390625 -1.625 1.140625q-0.703125 0.75 -1.109375 1.828125q-0.40625 1.078125 -0.40625 2.4375q0 2.84375 1.375 4.265625q1.390625 1.40625 3.84375 1.40625q1.109375 0 2.140625 -0.25q1.046875 -0.25 2.015625 -0.75l0 2.53125zm18.046875 0.359375q-0.921875 0.234375 -1.90625 0.328125q-0.984375 0.109375 -2.0 0.109375q-2.953125 0 -4.40625 -1.328125q-1.453125 -1.34375 -1.453125 -4.109375l0 -8.1875l-4.390625 0l0 -2.28125l4.390625 0l0 -4.3125l2.71875 -0.703125l0 5.015625l7.046875 0l0 2.28125l-7.046875 0l0 7.96875q0 1.6875 0.890625 2.53125q0.90625 0.828125 2.65625 0.828125q0.75 0 1.640625 -0.109375q0.890625 -0.125 1.859375 -0.375l0 2.34375zm8.15625 -23.046875q7.203125 6.671875 7.203125 14.84375q0 1.6875 -0.34375 3.5q-0.34375 1.8125 -1.171875 3.71875q-0.828125 1.890625 -2.234375 3.84375q-1.390625 1.953125 -3.515625 3.921875l-1.578125 -1.609375q3.046875 -3.015625 4.546875 -6.296875q1.5 -3.28125 1.5 -6.875q0 -7.4375 -6.046875 -13.375l1.640625 -1.671875z" fill-rule="nonzero"></path><path fill="#000000" fill-opacity="0.0" d="m131.1831 150.53l363.71652 -123.18111l15.401581 45.480312l-363.71655 123.1811z" fill-rule="nonzero"></path><path fill="#000000" d="m147.51816 159.94183l0.9421997 2.7823029l1.8647156 -0.63153076l0.46107483 1.3615417l-1.8647156 0.63153076l1.9696198 5.8161774q0.23554993 0.6955719 0.7093506 0.5845947q0.48861694 -0.115982056 0.9917908 -0.28640747l0.42918396 -0.14533997l0.45606995 1.3467407l-1.2727356 0.43104553q-1.2579498 0.4260254 -1.8374786 0.12739563q-0.58454895 -0.3134308 -0.94036865 -1.3641815l-2.0297546 -5.9937744l-1.5835266 0.53630066l-0.46107483 -1.361557l1.5835266 -0.5362854l-0.9421997 -2.7823029l1.5243225 -0.5162506zm8.183487 0.09890747q1.9979095 -0.67663574 3.598999 0.39779663q1.5960846 1.0596466 2.3578644 3.3091583l0.06515503 0.19239807l-6.9704742 2.3607025l0.035079956 0.10359192q0.45106506 1.331955 1.4962616 1.8852997q1.0550079 0.53352356 2.4017334 0.077423096q1.021164 -0.34584045 1.4527588 -1.0199127q0.44639587 -0.67907715 0.34309387 -1.6174011l1.5095215 -0.51123047q0.2154541 1.659195 -0.55966187 2.8290253q-0.7602997 1.1648102 -2.3290253 1.6960907q-1.4799347 0.5012207 -2.7266083 0.18107605q-1.2318878 -0.32514954 -2.1212006 -1.3437042q-0.8745117 -1.0235596 -1.2904816 -2.2519073q-0.69662476 -2.057129 0.06562805 -3.8494873q0.7770386 -1.7973633 2.6713562 -2.438919zm-1.4095306 4.898514l5.3425446 -1.8093872q-0.45487976 -1.0996857 -1.4602356 -1.5840454q-0.9955597 -0.50416565 -2.1203156 -0.12324524q-1.0507507 0.35586548 -1.5649414 1.3218536q-0.4994049 0.9609833 -0.197052 2.1948242zm11.522018 -8.323334q1.0063477 -0.34083557 1.7978516 -0.14697266q0.79148865 0.19384766 1.2838745 0.86842346q0.21798706 -0.91516113 0.84721375 -1.5901794q0.62924194 -0.6750183 1.5467987 -0.98576355q1.5687256 -0.5312805 2.5640564 -0.076538086q1.0101166 0.4497528 1.4210815 1.6632996l2.3304443 6.8817444l-1.5391235 0.5212555l-2.0898895 -6.171356q-0.3407898 -1.0063629 -0.93536377 -1.3493958q-0.58477783 -0.36283875 -1.5467224 -0.03704834q-1.1395569 0.3859253 -1.5503998 1.2674255q-0.4108429 0.88150024 -0.07505798 1.8730621l1.9796295 5.845764l-1.5391235 0.52127075l-2.0898895 -6.1713715q-0.3407898 -1.0063629 -0.93536377 -1.3493805q-0.58477783 -0.362854 -1.4875336 -0.057113647q-0.7251587 0.24560547 -1.1672516 0.7912445q-0.44711304 0.5308533 -0.5621948 1.2626953q-0.10531616 0.71203613 0.03501892 1.1264191l1.9746246 5.8309784l-1.5243378 0.5162506l-3.1523743 -9.308853l1.4355316 -0.48617554l0.46609497 1.3763428l0.044403076 -0.015029907q0.24734497 -0.9745941 0.8569946 -1.6099854q0.6194458 -0.65519714 1.6110077 -0.9910126zm15.176895 -5.1400146q1.9979095 -0.67663574 3.6035461 0.31378174q1.6006165 0.9756012 2.3323212 3.136322q0.73172 2.1607208 0.048233032 3.893402q-0.6884918 1.7178802 -2.6419983 2.379486q-0.8731537 0.29571533 -1.8221893 0.22120667q-0.9540558 -0.08930969 -1.6930237 -0.6638794l-0.02960205 0.010025024l1.6288147 4.8098145l-1.5391235 0.52127075l-4.360199 -12.875519l1.5391235 -0.5212555l0.431015 1.2727509l0.029586792 -0.010025024q0.10961914 -0.845459 0.753891 -1.4760742q0.65405273 -0.6504364 1.7196045 -1.0113068zm-1.4196167 5.8917236q0.55130005 1.627945 1.6564026 2.3094635q1.1051178 0.68151855 2.4666443 0.22039795q1.3319397 -0.45108032 1.7363586 -1.6438446q0.41921997 -1.1977692 -0.15211487 -2.884903q-0.51119995 -1.509552 -1.6065216 -2.2108765q-1.1003418 -0.71614075 -2.4618835 -0.25502014q-1.3467255 0.45610046 -1.7509155 1.6982727q-0.4091797 1.2273712 0.11203003 2.76651zm11.168976 -9.193573q1.9978943 -0.67663574 3.598999 0.39779663q1.5960846 1.0596313 2.3578644 3.3091583l0.06515503 0.19238281l-6.9704742 2.3607178l0.035079956 0.10359192q0.4510498 1.331955 1.4962616 1.8852844q1.0549927 0.5335388 2.4017334 0.077423096q1.0211487 -0.3458252 1.4527435 -1.0198975q0.44639587 -0.67907715 0.34309387 -1.6174011l1.5095367 -0.5112457q0.21543884 1.659195 -0.55966187 2.8290253q-0.7602997 1.1648254 -2.3290253 1.696106q-1.4799347 0.5012207 -2.7266083 0.18107605q-1.2318878 -0.32514954 -2.1212006 -1.3437042q-0.8745117 -1.0235596 -1.2904816 -2.2519226q-0.69664 -2.0571136 0.06561279 -3.849472q0.77705383 -1.7973633 2.6713715 -2.438919zm-1.4095306 4.898514l5.3425446 -1.8093872q-0.45489502 -1.0997009 -1.4602356 -1.5840454q-0.9955597 -0.50416565 -2.1203156 -0.12324524q-1.0507507 0.35586548 -1.5649567 1.3218536q-0.49938965 0.9609833 -0.19703674 2.1948242zm11.664993 -8.38826q0.044403076 -0.015045166 0.08879089 -0.030075073q0.044403076 -0.015029907 0.123413086 -0.025299072l0.5462799 1.6131439q-1.7167206 0.58140564 -2.2347565 1.7796478q-0.50323486 1.1932373 0.14328003 3.102356l1.4082947 4.1586456l-1.5391388 0.5212555l-3.152359 -9.308838l1.4503174 -0.49119568l0.66656494 1.9683228l0.02960205 -0.010025024q0.15689087 -1.29039 0.76083374 -2.0888062q0.5989227 -0.8132324 1.7088776 -1.1891327zm5.060623 -1.697403q1.8943024 -0.6415558 2.9240112 -0.23143005q1.0246887 0.39530945 1.4105835 1.5348663q1.6388397 4.8394165 1.8192596 5.3722076q0.17541504 0.51797485 0.6489868 0.35758972q0.10359192 -0.035095215 0.21697998 -0.08998108q0.123168945 -0.07470703 0.22653198 -0.1592102l0.40594482 1.198761q-0.18190002 0.193573 -0.44303894 0.3480072q-0.24133301 0.16421509 -0.5669098 0.2744751q-0.6363678 0.2155304 -1.0970306 -0.024383545q-0.44587708 -0.24491882 -0.6964569 -0.9848938q-0.3611908 0.9306793 -1.0646667 1.5813293q-0.6936798 0.6308594 -1.7148285 0.9766998q-1.4503326 0.49118042 -2.4948273 0.08607483q-1.0445099 -0.4051056 -1.4705048 -1.6630554q-0.42097473 -1.2431488 0.127594 -2.2537842q0.548584 -1.0106201 3.3831482 -2.3830261q0.96624756 -0.45922852 1.2362366 -0.83110046q0.26496887 -0.38668823 0.094573975 -0.88986206q-0.265625 -0.78437805 -0.89408875 -0.98394775q-0.61868286 -0.21939087 -1.6990356 0.14649963q-1.1395416 0.3859253 -1.5565796 1.0055695q-0.4170227 0.61964417 -0.15571594 1.5374603l-1.5391235 0.5212555q-0.44721985 -1.564209 0.30830383 -2.6944122q0.75553894 -1.1302032 2.5906525 -1.751709zm-0.31791687 7.9271393q0.22050476 0.6511688 0.81437683 0.8459778q0.5938568 0.1947937 1.4522095 -0.09590149q1.2875366 -0.43606567 1.8415985 -1.3330688q0.5688629 -0.9020233 0.29823303 -1.7011871l-0.541275 -1.5983429q-0.28955078 0.41151428 -0.8760376 0.72561646q-0.59150696 0.29930115 -1.5527496 0.7733154q-0.9710388 0.49383545 -1.3338928 1.0786285q-0.35305786 0.5649872 -0.10246277 1.3049622zm7.2496643 -13.145172l0.94221497 2.7822876l1.8647003 -0.63153076l0.4610901 1.361557l-1.8647156 0.6315155l1.9696045 5.8161774q0.23554993 0.69558716 0.70936584 0.58461q0.48861694 -0.115997314 0.9917908 -0.28640747l0.4291687 -0.14535522l0.45606995 1.346756l-1.2727356 0.43103027q-1.2579346 0.42604065 -1.8374786 0.12741089q-0.5845337 -0.3134308 -0.94036865 -1.3641968l-2.0297546 -5.9937744l-1.5835114 0.53630066l-0.4610901 -1.3615417l1.5835266 -0.53630066l-0.9421997 -2.7823029l1.5243225 -0.51623535zm5.9153595 1.0980072l2.1500397 6.3489685q0.26560974 0.7843628 0.9441986 1.1319275q0.67858887 0.3475647 1.5665436 0.046844482q1.3171387 -0.44607544 1.7568817 -1.4858246q0.4545288 -1.0447693 0.028533936 -2.302719l-1.7992096 -5.3130035l1.5391235 -0.5212555l3.1523743 9.308838l-1.4503326 0.49119568l-0.5011749 -1.47995l-0.02960205 0.010025024q-0.2172699 1.0634003 -0.8464966 1.7384033q-0.6194458 0.6552124 -1.6110077 0.99102783q-1.6279144 0.55133057 -2.6979523 -0.02659607q-1.0700226 -0.57792664 -1.6263275 -2.2206573l-2.0999146 -6.2009735l1.5243225 -0.5162506zm12.860092 -4.6028137q0.044403076 -0.015045166 0.08880615 -0.030075073q0.044387817 -0.015029907 0.12339783 -0.025299072l0.5462799 1.6131439q-1.7167206 0.58140564 -2.2347565 1.7796478q-0.50323486 1.1932373 0.14328003 3.102356l1.4082947 4.1586456l-1.5391235 0.5212555l-3.1523743 -9.308838l1.4503326 -0.49119568l0.6665497 1.9683228l0.02960205 -0.010025024q0.15689087 -1.29039 0.76083374 -2.0888062q0.598938 -0.8132324 1.7088776 -1.1891327zm5.119812 -1.717453q1.9979095 -0.67663574 3.5990143 0.39779663q1.5960846 1.0596313 2.3578644 3.3091583l0.06515503 0.19238281l-6.9704742 2.3607178l0.035079956 0.10359192q0.4510498 1.331955 1.4962616 1.8852844q1.0549927 0.5335388 2.4017334 0.077423096q1.0211487 -0.3458252 1.4527435 -1.0198975q0.44639587 -0.67907715 0.34309387 -1.6174011l1.5095367 -0.5112457q0.21543884 1.659195 -0.55966187 2.8290253q-0.7602997 1.1648254 -2.3290253 1.696106q-1.4799347 0.5012207 -2.7266083 0.18107605q-1.2318878 -0.32514954 -2.1212006 -1.3437042q-0.8745117 -1.0235596 -1.2904816 -2.2519226q-0.69664 -2.0571136 0.06561279 -3.849472q0.77705383 -1.7973633 2.6713562 -2.438919zm-1.4095154 4.8984985l5.3425446 -1.809372q-0.45489502 -1.0997009 -1.4602356 -1.5840454q-0.99557495 -0.50416565 -2.1203156 -0.12324524q-1.0507507 0.35586548 -1.5649567 1.3218536q-0.49938965 0.9609833 -0.19703674 2.194809z" fill-rule="nonzero"></path><path fill="#000000" d="m163.52072 177.0073l2.8516693 8.420883l1.7315216 -0.5864258l0.45606995 1.346756l-1.7315216 0.5864105l1.0123596 2.9894867l-1.4355316 0.48617554l-1.0123596 -2.9894867l-5.5941315 1.8945923l-0.5011749 -1.47995l3.009552 -10.257446l1.2135468 -0.41099548zm-0.7284088 2.6717224l-2.1324463 7.683838l4.276993 -1.4485016l-2.1149445 -6.2453613l-0.02960205 0.010025024zm7.9215546 -5.107849q1.7611084 -0.59643555 3.211853 0.03401184q1.4605255 0.6106415 2.0268555 2.2829742q0.44604492 1.3171539 0.06692505 2.633316q-0.37911987 1.3161621 -2.2957153 3.499466q-1.1794739 1.3397675 -1.5607147 2.2112427q-0.38124084 0.8714752 -0.26385498 1.6565552l6.5412903 -2.2153625l0.45606995 1.3467407l-8.332001 2.8218384q-0.4030609 -1.6286469 -0.12823486 -3.0579681q0.28961182 -1.4343262 1.8030243 -3.2006378q1.7736206 -2.1183777 2.1049805 -3.0884247q0.341156 -0.98986816 -0.02470398 -2.0702362q-0.3357849 -0.9915619 -1.2666626 -1.4021454q-0.9210968 -0.43040466 -1.9718475 -0.074539185q-1.1543427 0.39094543 -1.5296326 1.4748535q-0.37528992 1.0839081 0.07575989 2.415863l0.040100098 0.118392944l-1.5391235 0.5212555l-0.10525513 -0.31077576q-0.6465149 -1.9091339 0.09233093 -3.4296112q0.73384094 -1.5352783 2.5985565 -2.166809z" fill-rule="nonzero"></path><path fill="#000000" d="m175.48662 196.18222l2.8516693 8.420883l1.7315216 -0.5864258l0.4560547 1.346756l-1.7315063 0.5864105l1.0123596 2.9894867l-1.4355316 0.48617554l-1.0123596 -2.9894867l-5.5941467 1.8945923l-0.50115967 -1.47995l3.009552 -10.257446l1.2135468 -0.41099548zm-0.7284088 2.6717224l-2.1324463 7.683838l4.276993 -1.4485016l-2.1149445 -6.2453613l-0.02960205 0.010025024zm11.5633545 -6.0937805l0.45606995 1.346756l-5.1501617 1.7442169l0.5621338 3.9008179l0.039627075 0.019577026q0.2492218 -0.5793152 0.7758179 -1.0216064q0.54138184 -0.44729614 1.2961426 -0.7029114q1.8499146 -0.6265259 3.3705902 0.16171265q1.5304565 0.76841736 2.2220764 2.8107452q0.6214447 1.8351288 -0.21073914 3.469696q-0.81736755 1.6295624 -2.800476 2.3011932q-1.7167206 0.58140564 -3.2018433 -0.00440979q-1.4901276 -0.60061646 -2.1008453 -2.2579193l-0.0050201416 -0.014801025l1.5243378 -0.5162506q0.4197998 0.996109 1.3752747 1.3818665q0.9702606 0.38076782 2.0802155 0.004852295q1.1839447 -0.40097046 1.6680756 -1.4557495q0.47911072 -1.0695953 0.0030059814 -2.4755402q-0.44104004 -1.3023529 -1.5404358 -1.8208466q-1.0993958 -0.5184784 -2.3129272 -0.10748291q-0.6807709 0.23054504 -1.1674957 0.7418213q-0.491745 0.49647522 -0.80422974 1.2786713l-1.3274078 0.3670807l-1.0562897 -7.016327l6.3045044 -2.1351624z" fill-rule="nonzero"></path><path fill="#000000" d="m187.45251 215.35715l2.8516693 8.420868l1.7315063 -0.5864105l0.45606995 1.3467407l-1.7315216 0.5864258l1.0123749 2.9894867l-1.4355316 0.48617554l-1.0123749 -2.9894867l-5.5941315 1.894577l-0.5011749 -1.4799347l3.0095673 -10.257446l1.2135468 -0.41099548zm-0.7284088 2.6717072l-2.1324615 7.683853l4.277008 -1.4485168l-2.1149445 -6.2453613l-0.02960205 0.010025024zm11.5633545 -6.0937653l0.4560547 1.3467407l-5.1501465 1.7442322l0.5621338 3.9008179l0.039627075 0.019561768q0.2492218 -0.5792999 0.7758179 -1.0215912q0.54138184 -0.44729614 1.2961426 -0.70292664q1.8499146 -0.6265106 3.370575 0.1617279q1.5304718 0.76841736 2.2220917 2.8107452q0.6214447 1.8351288 -0.21073914 3.469696q-0.8173828 1.6295624 -2.800476 2.3011932q-1.7167206 0.58140564 -3.2018433 -0.00440979q-1.4901276 -0.60061646 -2.1008453 -2.2579193l-0.0050201416 -0.014801025l1.5243225 -0.5162506q0.41981506 0.996109 1.3752747 1.3818665q0.9702759 0.38076782 2.0802155 0.004852295q1.1839447 -0.40097046 1.6680756 -1.4557648q0.47912598 -1.0695801 0.0030059814 -2.475525q-0.44102478 -1.3023529 -1.5404205 -1.8208466q-1.0993958 -0.51849365 -2.3129272 -0.10749817q-0.6807709 0.2305603 -1.1674957 0.74183655q-0.491745 0.49647522 -0.80422974 1.2786713l-1.3274078 0.3670807l-1.0562897 -7.016327l6.3045044 -2.1351624z" fill-rule="nonzero"></path><path fill="#000000" d="m199.41841 234.53207l2.8516693 8.420868l1.7315063 -0.5864105l0.45606995 1.3467407l-1.7315216 0.5864258l1.0123749 2.9894867l-1.4355316 0.48617554l-1.0123749 -2.9894867l-5.5941315 1.894577l-0.5011749 -1.4799347l3.0095673 -10.257446l1.2135468 -0.41099548zm-0.7284088 2.6717072l-2.1324615 7.683853l4.277008 -1.4485168l-2.1149597 -6.2453613l-0.029586792 0.010025024zm8.395111 -5.268219q1.5835266 -0.53630066 2.8065643 0.00630188q1.2328186 0.5227814 1.9070435 2.0266113l-1.5243225 0.5162506q-0.44392395 -0.87246704 -1.1864777 -1.1653748q-0.7327728 -0.31271362 -1.6059265 -0.016998291q-1.4799347 0.50120544 -1.8483276 1.9952087q-0.35359192 1.4889832 0.394104 3.891739l0.044631958 0.03437805q0.2322998 -1.0189972 0.8763428 -1.6990204q0.6390228 -0.6948242 1.7341766 -1.0657196q1.7463074 -0.59143066 3.217575 0.19703674q1.4662476 0.7736664 2.0877075 2.6087952q0.62646484 1.8499298 -0.08232117 3.4592133q-0.6939697 1.6042633 -2.721466 2.290924q-2.1607056 0.73176575 -3.801651 -0.4116516q-1.6261597 -1.1484375 -2.6786194 -4.256317q-1.1176147 -3.3002777 -0.51527405 -5.467392q0.60235596 -2.1671143 2.8962402 -2.943985zm0.10089111 9.748413q0.42599487 1.2579498 1.4217987 1.8115234q1.0055847 0.5337677 2.1895294 0.13279724q1.1395416 -0.38594055 1.5792847 -1.4256897q0.4545288 -1.044754 0.03855896 -2.273117q-0.44604492 -1.3171539 -1.4072418 -1.8659515q-0.96118164 -0.5487976 -2.1599274 -0.142807q-1.1987457 0.40597534 -1.6532745 1.4507446q-0.43972778 1.0397491 -0.008728027 2.3125z" fill-rule="nonzero"></path><path fill="#a57a35" fill-opacity="0.4923" d="m521.3307 413.87665l0 47.06018l0 0c0 2.4962769 -0.9916382 4.89032 -2.756775 6.6554565c-1.7651367 1.7651367 -4.1591797 2.7568054 -6.6554565 2.7568054l-166.39877 0l0 -56.472443z" fill-rule="nonzero"></path></g></svg>

