<?xml version="1.0" standalone="yes"?>

<svg version="1.1" viewBox="0.0 0.0 470.0 470.0" fill="none" stroke="none" stroke-linecap="square" stroke-miterlimit="10" xmlns="http://www.w3.org/2000/svg" xmlns:xlink="http://www.w3.org/1999/xlink"><clipPath id="p.0"><path d="m0 0l470.0 0l0 470.0l-470.0 0l0 -470.0z" clip-rule="nonzero"></path></clipPath><g clip-path="url(#p.0)"><path fill="#000000" fill-opacity="0.0" d="m0 0l470.04462 0l0 470.04462l-470.04462 0z" fill-rule="nonzero"></path><path fill="#cfe2f3" d="m80.19423 385.96326l165.5538 -159.71129l-10.385834 -196.07086l-159.71127 135.04199z" fill-rule="nonzero"></path><path stroke="#000000" stroke-width="2.0" stroke-linejoin="round" stroke-linecap="butt" d="m80.19423 385.96326l165.5538 -159.71129l-10.385834 -196.07086l-159.71127 135.04199z" fill-rule="nonzero"></path><path fill="#000000" fill-opacity="0.0" d="m78.89501 385.96326l-23.370079 -8.4409485l0 -217.49344l162.30708 -133.74278l19.477692 4.545933" fill-rule="nonzero"></path><path stroke="#000000" stroke-width="2.0" stroke-linejoin="round" stroke-linecap="butt" d="m78.89501 385.96326l-23.370079 -8.4409485l0 -217.49344l162.30708 -133.74278l19.477692 4.545933" fill-rule="nonzero"></path><path fill="#000000" fill-opacity="0.0" d="m56.17323 160.67717l21.425198 4.545929" fill-rule="nonzero"></path><path stroke="#000000" stroke-width="2.0" stroke-linejoin="round" stroke-linecap="butt" d="m56.17323 160.67717l21.425198 4.545929" fill-rule="nonzero"></path><path fill="#000000" fill-opacity="0.0" d="m117.850395 355.44882l29.215218 6.490814l80.50394 -80.50394l-27.267715 -6.4934387" fill-rule="nonzero"></path><path stroke="#000000" stroke-width="2.0" stroke-linejoin="round" stroke-linecap="butt" d="m117.850395 355.44882l29.215218 6.490814l80.50394 -80.50394l-27.267715 -6.4934387" fill-rule="nonzero"></path><path fill="#b7b7b7" d="m136.02887 408.03674l0 -11.036743l88.944885 32.461945l111.66928 -132.44357l-69.46982 -32.461945l-129.84514 131.79266" fill-rule="nonzero"></path><path stroke="#000000" stroke-width="2.0" stroke-linejoin="round" stroke-linecap="butt" d="m136.02887 408.03674l0 -11.036743l88.944885 32.461945l111.66928 -132.44357l-69.46982 -32.461945l-129.84514 131.79266" fill-rule="nonzero"></path><path fill="#000000" fill-opacity="0.0" d="m377.85303 377.85303l-67.519684 85.700775l-68.81891 -99.33334l-17.527557 13.632568" fill-rule="nonzero"></path><path stroke="#000000" stroke-width="2.0" stroke-linejoin="round" stroke-linecap="butt" d="m377.85303 377.85303l-67.519684 85.700775l-68.81891 -99.33334l-17.527557 13.632568" fill-rule="nonzero"></path><path fill="#000000" fill-opacity="0.0" d="m380.45145 300.5958l-3.8950195 163.6063" fill-rule="nonzero"></path><path stroke="#000000" stroke-width="2.0" stroke-linejoin="round" stroke-linecap="butt" d="m380.45145 300.5958l-3.8950195 163.6063" fill-rule="nonzero"></path><path fill="#000000" fill-opacity="0.0" d="m377.85303 327.2126l-27.26773 13.635193l-38.304443 -44.797913l-23.372711 12.984253" fill-rule="nonzero"></path><path stroke="#000000" stroke-width="2.0" stroke-linejoin="round" stroke-linecap="butt" d="m377.85303 327.2126l-27.26773 13.635193l-38.304443 -44.797913l-23.372711 12.984253" fill-rule="nonzero"></path><path fill="#000000" fill-opacity="0.0" d="m305.79004 205.48819l0 0c0 -52.532288 35.31662 -95.11811 78.88187 -95.11811l0 0c20.920776 0 40.98471 10.021347 55.777924 27.859444c14.793243 17.838104 23.103973 42.03177 23.103973 67.25867l0 0c0 52.532288 -35.31662 95.1181 -78.8819 95.1181l0 0c-43.565247 0 -78.88187 -42.585815 -78.88187 -95.1181z" fill-rule="nonzero"></path><path stroke="#000000" stroke-width="2.0" stroke-linejoin="round" stroke-linecap="butt" d="m305.79004 205.48819l0 0c0 -52.532288 35.31662 -95.11811 78.88187 -95.11811l0 0c20.920776 0 40.98471 10.021347 55.777924 27.859444c14.793243 17.838104 23.103973 42.03177 23.103973 67.25867l0 0c0 52.532288 -35.31662 95.1181 -78.8819 95.1181l0 0c-43.565247 0 -78.88187 -42.585815 -78.88187 -95.1181z" fill-rule="nonzero"></path><path fill="#000000" fill-opacity="0.0" d="m108.42257 197.36745l31.162727 25.968506l-16.879257 44.797897" fill-rule="nonzero"></path><path stroke="#000000" stroke-width="2.0" stroke-linejoin="round" stroke-linecap="butt" d="m108.42257 197.36745l31.162727 25.968506l-16.879257 44.797897" fill-rule="nonzero"></path><path fill="#000000" fill-opacity="0.0" d="m154.51706 241.51443l31.813644 -23.372696" fill-rule="nonzero"></path><path stroke="#000000" stroke-width="2.0" stroke-linejoin="round" stroke-linecap="butt" d="m154.51706 241.51443l31.813644 -23.372696" fill-rule="nonzero"></path></g></svg>

