<?xml version="1.0" standalone="yes"?>

<svg version="1.1" viewBox="0.0 0.0 661.0 584.0" fill="none" stroke="none" stroke-linecap="square" stroke-miterlimit="10" xmlns="http://www.w3.org/2000/svg" xmlns:xlink="http://www.w3.org/1999/xlink"><clipPath id="p.0"><path d="m0 0l661.0 0l0 584.0l-661.0 0l0 -584.0z" clip-rule="nonzero"></path></clipPath><g clip-path="url(#p.0)"><path fill="#000000" fill-opacity="0.0" d="m0 0l661.7953 0l0 584.4514l-661.7953 0z" fill-rule="nonzero"></path><path fill="#000000" fill-opacity="0.0" d="m359.36108 574.6457l-318.937 -466.44623l346.84515 -100.46457l47.839905 60.598427" fill-rule="nonzero"></path><path stroke="#000000" stroke-width="12.0" stroke-linejoin="round" stroke-linecap="butt" d="m359.36108 574.6457l-318.937 -466.44623l346.84515 -100.46457l47.839905 60.598427" fill-rule="nonzero"></path><path fill="#000000" fill-opacity="0.0" d="m270.613 256.24347l0 0c-10.950012 -91.82712 65.95828 -176.49817 171.77954 -189.1181l0 0c105.8212 -12.619926 200.48306 51.590195 211.43307 143.41733l0 0c10.950012 91.82712 -65.95831 176.4982 -171.77954 189.1181l0 0c-105.82123 12.619934 -200.48306 -51.59018 -211.43307 -143.41733z" fill-rule="nonzero"></path><path stroke="#000000" stroke-width="12.0" stroke-linejoin="round" stroke-linecap="butt" d="m270.613 256.24347l0 0c-10.950012 -91.82712 65.95828 -176.49817 171.77954 -189.1181l0 0c105.8212 -12.619926 200.48306 51.590195 211.43307 143.41733l0 0c10.950012 91.82712 -65.95831 176.4982 -171.77954 189.1181l0 0c-105.82123 12.619934 -200.48306 -51.59018 -211.43307 -143.41733z" fill-rule="nonzero"></path><path fill="#000000" fill-opacity="0.0" d="m108.19836 136.1076l258.3307 -79.748024" fill-rule="nonzero"></path><path stroke="#cccccc" stroke-width="12.0" stroke-linejoin="round" stroke-linecap="butt" d="m108.19836 136.1076l258.3307 -79.748024" fill-rule="nonzero"></path><path fill="#000000" fill-opacity="0.0" d="m134.56319 169.65092l112.37796 -33.54332" fill-rule="nonzero"></path><path stroke="#cccccc" stroke-width="12.0" stroke-linejoin="round" stroke-linecap="butt" d="m134.56319 169.65092l112.37796 -33.54332" fill-rule="nonzero"></path><path fill="#000000" fill-opacity="0.0" d="m289.30072 385.78217l34.173218 -10.48819" fill-rule="nonzero"></path><path stroke="#cccccc" stroke-width="12.0" stroke-linejoin="round" stroke-linecap="butt" d="m289.30072 385.78217l34.173218 -10.48819" fill-rule="nonzero"></path><path fill="#000000" fill-opacity="0.0" d="m316.46344 429.68765l75.590576 -24.094482" fill-rule="nonzero"></path><path stroke="#cccccc" stroke-width="12.0" stroke-linejoin="round" stroke-linecap="butt" d="m316.46344 429.68765l75.590576 -24.094482" fill-rule="nonzero"></path><path fill="#000000" fill-opacity="0.0" d="m346.7023 475.98688l258.33072 -79.74805" fill-rule="nonzero"></path><path stroke="#cccccc" stroke-width="12.0" stroke-linejoin="round" stroke-linecap="butt" d="m346.7023 475.98688l258.33072 -79.74805" fill-rule="nonzero"></path><path fill="#000000" fill-opacity="0.0" d="m188.19836 216.1076l69.102356 -21.007874" fill-rule="nonzero"></path><path stroke="#cccccc" stroke-width="12.0" stroke-linejoin="round" stroke-linecap="butt" d="m188.19836 216.1076l69.102356 -21.007874" fill-rule="nonzero"></path><path fill="#000000" fill-opacity="0.0" d="m264.44055 227.69778l420.15747 -193.25984l20.062988 43.622044l-420.15747 193.25984z" fill-rule="nonzero"></path><path fill="#000000" d="m371.43936 278.30807q4.204651 9.141937 5.5339966 17.267395q1.3293457 8.125458 -0.21826172 14.856842q-1.5476074 6.7313843 -5.854065 11.876801q-4.306488 5.1453857 -11.404144 8.410095q-6.1323853 2.8207092 -12.29187 3.0397034q-6.159485 0.21899414 -12.035492 -2.6849976q-5.876007 -2.9039612 -11.29361 -9.148956q-5.4176025 -6.244995 -10.04007 -16.29544q-4.204651 -9.141937 -5.5055847 -17.280457q-1.3009644 -8.138519 0.21826172 -14.856842q1.5191956 -6.7183228 5.8824463 -11.889862q4.3632507 -5.171509 11.404144 -8.410095q6.1323547 -2.8207092 12.29187 -3.0397034q6.159485 -0.21897888 11.994049 2.6696625q5.8345337 2.8886566 11.252136 9.133652q5.4176025 6.2449646 10.066193 16.352203zm-43.84424 20.44223q0.52230835 1.1356506 0.9793396 2.1293335q0.45700073 0.99368286 1.0406494 1.9635315l18.57788 -32.89856q-4.5727844 -4.7073364 -9.078217 -5.90271q-4.505432 -1.195404 -8.934357 0.8417969q-3.1797485 1.4625854 -5.16098 4.3345337q-1.9812012 2.8719177 -2.4560852 7.1492615q-0.47491455 4.277313 0.68536377 9.866364q1.1602783 5.58902 4.346405 12.516449zm30.084991 -13.563019q-0.44396973 -0.9653015 -0.9577942 -1.9328613q-0.51379395 -0.9675598 -0.9316406 -1.8760986l-18.459778 32.706665q4.3502197 4.672119 8.871002 5.82605q4.520752 1.1539307 8.892914 -0.8571167q3.1797485 -1.462616 5.1762695 -4.376007q1.9965515 -2.913391 2.484497 -7.162323q0.48797607 -4.248932 -0.7137451 -9.853302q-1.2017212 -5.6043396 -4.361725 -12.475006zm42.60968 25.186127l-5.6671143 -12.321716l18.908173 -8.697205l-21.937195 -47.697052l-12.288055 16.659271l-9.739532 -9.210236l17.84488 -23.27414l11.640167 -5.354126l28.67508 62.346863l16.296234 -7.4957886l5.6671143 12.321747l-49.39975 22.722382zm63.93576 -29.408508l-5.6671143 -12.321747l18.908173 -8.697174l-21.937225 -47.697067l-12.288055 16.659286l-9.739532 -9.210251l17.84491 -23.27414l11.640167 -5.354126l28.675049 62.346863l16.296234 -7.4957733l5.6670837 12.321747l-49.39969 22.722382zm99.02103 -90.8824q4.204651 9.141937 5.5339966 17.267395q1.3293457 8.125458 -0.21826172 14.856842q-1.5476074 6.7313995 -5.854065 11.876801q-4.3064575 5.1453857 -11.404114 8.410095q-6.1323853 2.8207245 -12.29187 3.0397034q-6.159546 0.21899414 -12.035522 -2.6849976q-5.8759766 -2.9039764 -11.293579 -9.148972q-5.4176025 -6.24498 -10.0401 -16.295425q-4.2046204 -9.141937 -5.5055847 -17.280457q-1.3009644 -8.138519 0.21826172 -14.856857q1.5192261 -6.7183228 5.882477 -11.889832q4.36322 -5.171524 11.404114 -8.41011q6.1323853 -2.8207245 12.29187 -3.0397034q6.159485 -0.21899414 11.994019 2.6696625q5.8345947 2.8886566 11.252197 9.133636q5.4176025 6.24498 10.066162 16.352219zm-43.84424 20.44223q0.52233887 1.1356354 0.9793091 2.1293335q0.45703125 0.99368286 1.0407104 1.9635315l18.57788 -32.898575q-4.572815 -4.707321 -9.078247 -5.90271q-4.505432 -1.1953888 -8.934326 0.8417969q-3.1798096 1.4625854 -5.1610107 4.3345337q-1.9812012 2.871933 -2.4561157 7.1492615q-0.47485352 4.2773285 0.6854248 9.866364q1.1602783 5.589035 4.3463745 12.516464zm30.08496 -13.563019q-0.44396973 -0.9653015 -0.9577637 -1.9328613q-0.51379395 -0.9675751 -0.9316406 -1.8760986l-18.459778 32.706665q4.3502197 4.672104 8.870972 5.8260345q4.520752 1.1539459 8.892944 -0.8571167q3.1797485 -1.4625854 5.1762695 -4.375992q1.996582 -2.913391 2.484497 -7.162323q0.48797607 -4.248932 -0.7137451 -9.853302q-1.2017212 -5.604355 -4.3617554 -12.475006zm42.60974 25.186142l-5.6671143 -12.321747l18.908142 -8.697189l-21.937195 -47.697052l-12.288025 16.659286l-9.739563 -9.210251l17.84491 -23.27414l11.640137 -5.354141l28.67511 62.346878l16.296204 -7.4957886l5.6671143 12.321747l-49.39972 22.722397z" fill-rule="nonzero"></path><path fill="#000000" fill-opacity="0.0" d="m352.39465 577.25055l-330.2517 -454.1148l18.93935 -5.516266" fill-rule="nonzero"></path><path stroke="#000000" stroke-width="8.0" stroke-linejoin="round" stroke-linecap="butt" d="m352.39465 577.25055l-330.2517 -454.1148l18.93935 -5.516266" fill-rule="nonzero"></path><path fill="#000000" fill-opacity="0.0" d="m351.58127 580.20306l-345.89008 -442.35147l18.736483 -6.173126" fill-rule="nonzero"></path><path stroke="#000000" stroke-width="8.0" stroke-linejoin="round" stroke-linecap="butt" d="m351.58127 580.20306l-345.89008 -442.35147l18.736483 -6.173126" fill-rule="nonzero"></path></g></svg>

