<?xml version="1.0" standalone="yes"?>

<svg version="1.1" viewBox="0.0 0.0 960.0 720.0" fill="none" stroke="none" stroke-linecap="square" stroke-miterlimit="10" xmlns="http://www.w3.org/2000/svg" xmlns:xlink="http://www.w3.org/1999/xlink"><clipPath id="p.0"><path d="m0 0l960.0 0l0 720.0l-960.0 0l0 -720.0z" clip-rule="nonzero"></path></clipPath><g clip-path="url(#p.0)"><path fill="#000000" fill-opacity="0.0" d="m0 0l960.0 0l0 720.0l-960.0 0z" fill-rule="nonzero"></path><path fill="#000000" fill-opacity="0.0" d="m703.64307 383.19946l0.66137695 -107.49606" fill-rule="nonzero"></path><path stroke="#cc0000" stroke-width="24.0" stroke-linejoin="round" stroke-linecap="butt" d="m703.64307 383.19946l0.66137695 -107.49606" fill-rule="nonzero"></path><path fill="#000000" fill-opacity="0.0" d="m688.3123 377.1916l76.09448 1.3228455" fill-rule="nonzero"></path><path stroke="#cc0000" stroke-width="24.0" stroke-linejoin="round" stroke-linecap="butt" d="m688.3123 377.1916l76.09448 1.3228455" fill-rule="nonzero"></path><path fill="#000000" fill-opacity="0.0" d="m359.3622 574.6457l-318.937 -466.44623l346.84515 -100.46457l255.0787 329.82678" fill-rule="nonzero"></path><path stroke="#000000" stroke-width="12.0" stroke-linejoin="round" stroke-linecap="butt" d="m359.3622 574.6457l-318.937 -466.44623l346.84515 -100.46457l255.0787 329.82678" fill-rule="nonzero"></path><path fill="#000000" fill-opacity="0.0" d="m108.19836 136.1076l258.33072 -79.748024" fill-rule="nonzero"></path><path stroke="#cccccc" stroke-width="12.0" stroke-linejoin="round" stroke-linecap="butt" d="m108.19836 136.1076l258.33072 -79.748024" fill-rule="nonzero"></path><path fill="#000000" fill-opacity="0.0" d="m134.56319 169.65092l112.377945 -33.54332" fill-rule="nonzero"></path><path stroke="#cccccc" stroke-width="12.0" stroke-linejoin="round" stroke-linecap="butt" d="m134.56319 169.65092l112.377945 -33.54332" fill-rule="nonzero"></path><path fill="#000000" fill-opacity="0.0" d="m289.30072 385.78217l230.70868 -84.28348" fill-rule="nonzero"></path><path stroke="#cccccc" stroke-width="12.0" stroke-linejoin="round" stroke-linecap="butt" d="m289.30072 385.78217l230.70868 -84.28348" fill-rule="nonzero"></path><path fill="#000000" fill-opacity="0.0" d="m316.46347 429.68765l75.590546 -24.094482" fill-rule="nonzero"></path><path stroke="#cccccc" stroke-width="12.0" stroke-linejoin="round" stroke-linecap="butt" d="m316.46347 429.68765l75.590546 -24.094482" fill-rule="nonzero"></path><path fill="#000000" fill-opacity="0.0" d="m346.7023 475.98688l187.49606 -54.86615" fill-rule="nonzero"></path><path stroke="#cccccc" stroke-width="12.0" stroke-linejoin="round" stroke-linecap="butt" d="m346.7023 475.98688l187.49606 -54.86615" fill-rule="nonzero"></path><path fill="#000000" fill-opacity="0.0" d="m181.64456 217.74803l243.87402 -84.47244" fill-rule="nonzero"></path><path stroke="#cccccc" stroke-width="12.0" stroke-linejoin="round" stroke-linecap="butt" d="m181.64456 217.74803l243.87402 -84.47244" fill-rule="nonzero"></path><path fill="#000000" fill-opacity="0.0" d="m352.39465 577.25055l-330.2517 -454.1148l18.939352 -5.516266" fill-rule="nonzero"></path><path stroke="#000000" stroke-width="8.0" stroke-linejoin="round" stroke-linecap="butt" d="m352.39465 577.25055l-330.2517 -454.1148l18.939352 -5.516266" fill-rule="nonzero"></path><path fill="#000000" fill-opacity="0.0" d="m351.58127 580.20306l-345.89008 -442.35147l18.736483 -6.173126" fill-rule="nonzero"></path><path stroke="#000000" stroke-width="8.0" stroke-linejoin="round" stroke-linecap="butt" d="m351.58127 580.20306l-345.89008 -442.35147l18.736483 -6.173126" fill-rule="nonzero"></path><path fill="#000000" fill-opacity="0.0" d="m228.23248 293.83203l243.87402 -84.47246" fill-rule="nonzero"></path><path stroke="#cccccc" stroke-width="12.0" stroke-linejoin="round" stroke-linecap="butt" d="m228.23248 293.83203l243.87402 -84.47246" fill-rule="nonzero"></path><path fill="#000000" fill-opacity="0.0" d="m201.62619 254.12335l243.87402 -84.47244" fill-rule="nonzero"></path><path stroke="#cccccc" stroke-width="12.0" stroke-linejoin="round" stroke-linecap="butt" d="m201.62619 254.12335l243.87402 -84.47244" fill-rule="nonzero"></path><path fill="#000000" fill-opacity="0.0" d="m265.7863 335.3517l75.590546 -24.094482" fill-rule="nonzero"></path><path stroke="#cccccc" stroke-width="12.0" stroke-linejoin="round" stroke-linecap="butt" d="m265.7863 335.3517l75.590546 -24.094482" fill-rule="nonzero"></path><path fill="#000000" fill-opacity="0.0" d="m515.4173 319.6404l384.0 0l0 48.0l-384.0 0z" fill-rule="nonzero"></path><path fill="#cc0000" d="m550.4329 406.0348q1.59375 0 3.015625 0.609375q1.4375 0.609375 2.484375 1.6875q1.0625 1.078125 1.671875 2.515625q0.609375 1.421875 0.609375 3.0625q0 1.59375 -0.609375 3.0q-0.609375 1.40625 -1.671875 2.46875q-1.046875 1.046875 -2.484375 1.65625q-1.421875 0.609375 -3.015625 0.609375q-1.640625 0 -3.046875 -0.609375q-1.40625 -0.609375 -2.46875 -1.65625q-1.046875 -1.0625 -1.65625 -2.46875q-0.609375 -1.40625 -0.609375 -3.0q0 -1.640625 0.609375 -3.0625q0.609375 -1.4375 1.65625 -2.515625q1.0625 -1.078125 2.46875 -1.6875q1.40625 -0.609375 3.046875 -0.609375zm31.875 -7.78125q0 -6.0 1.640625 -10.65625q1.640625 -4.671875 4.65625 -7.875q3.03125 -3.21875 7.265625 -4.875q4.25 -1.671875 9.453125 -1.671875q2.25 0 4.421875 0.28125q2.1875 0.28125 4.296875 0.890625l0 -19.78125l8.203125 0l0 66.234375l-7.3125 0l-0.28125 -8.90625q-3.421875 4.96875 -7.40625 7.359375q-3.984375 2.390625 -8.625 2.390625q-4.03125 0 -7.109375 -1.6875q-3.0625 -1.6875 -5.109375 -4.75q-2.03125 -3.078125 -3.0625 -7.390625q-1.03125 -4.3125 -1.03125 -9.5625zm8.34375 -0.515625q0 8.53125 2.5 12.734375q2.515625 4.1875 7.109375 4.1875q3.09375 0 6.53125 -2.765625q3.453125 -2.765625 7.25 -8.203125l0 -21.84375q-2.015625 -0.9375 -4.453125 -1.421875q-2.4375 -0.5 -4.828125 -0.5q-6.65625 0 -10.390625 4.3125q-3.71875 4.3125 -3.71875 13.5zm77.0625 23.0625l-0.1875 -6.328125q-3.84375 3.796875 -7.8125 5.484375q-3.953125 1.6875 -8.3125 1.6875q-4.03125 0 -6.890625 -1.03125q-2.859375 -1.03125 -4.71875 -2.828125q-1.84375 -1.8125 -2.71875 -4.25q-0.859375 -2.4375 -0.859375 -5.296875q0 -7.078125 5.265625 -11.078125q5.28125 -4.015625 15.59375 -4.015625l9.75 0l0 -4.125q0 -4.171875 -2.671875 -6.671875q-2.671875 -2.515625 -8.15625 -2.515625q-3.984375 0 -7.859375 0.890625q-3.859375 0.890625 -7.984375 2.53125l0 -7.359375q1.546875 -0.5625 3.4375 -1.09375q1.90625 -0.546875 4.015625 -0.96875q2.109375 -0.421875 4.40625 -0.671875q2.296875 -0.265625 4.640625 -0.265625q4.265625 0 7.6875 0.9375q3.421875 0.9375 5.78125 2.859375q2.375 1.921875 3.640625 4.828125q1.265625 2.90625 1.265625 6.84375l0 32.4375l-7.3125 0zm-0.890625 -21.421875l-10.359375 0q-3.046875 0 -5.25 0.609375q-2.203125 0.609375 -3.609375 1.734375q-1.40625 1.125 -2.09375 2.703125q-0.671875 1.5625 -0.671875 3.53125q0 1.359375 0.421875 2.609375q0.421875 1.234375 1.359375 2.203125q0.9375 0.953125 2.4375 1.515625q1.5 0.5625 3.65625 0.5625q2.8125 0 6.4375 -1.703125q3.640625 -1.71875 7.671875 -5.421875l0 -8.34375zm61.359375 20.765625q-2.765625 0.703125 -5.71875 1.0q-2.953125 0.3125 -6.0 0.3125q-8.859375 0 -13.21875 -4.0q-4.359375 -4.015625 -4.359375 -12.3125l0 -24.5625l-13.171875 0l0 -6.84375l13.171875 0l0 -12.9375l8.15625 -2.109375l0 15.046875l21.140625 0l0 6.84375l-21.140625 0l0 23.90625q0 5.0625 2.6875 7.578125q2.703125 2.5 7.953125 2.5q2.25 0 4.921875 -0.34375q2.671875 -0.359375 5.578125 -1.109375l0 7.03125z" fill-rule="nonzero"></path><path fill="#000000" fill-opacity="0.0" d="m667.1268 340.5082l0 0c-34.37213 -87.704544 -16.597473 -176.6906 39.700806 -198.75589l0 0c27.03534 -10.59613 59.520447 -4.0272675 90.3089 18.261505c30.788452 22.288773 57.358215 58.471664 73.86432 100.5889l0 0c34.37213 87.70453 16.597473 176.69058 -39.700806 198.75589l0 0c-56.298218 22.065277 -129.80109 -31.145844 -164.17322 -118.8504z" fill-rule="nonzero"></path><path stroke="#000000" stroke-width="12.0" stroke-linejoin="round" stroke-linecap="butt" d="m667.1268 340.5082l0 0c-34.37213 -87.704544 -16.597473 -176.6906 39.700806 -198.75589l0 0c27.03534 -10.59613 59.520447 -4.0272675 90.3089 18.261505c30.788452 22.288773 57.358215 58.471664 73.86432 100.5889l0 0c34.37213 87.70453 16.597473 176.69058 -39.700806 198.75589l0 0c-56.298218 22.065277 -129.80109 -31.145844 -164.17322 -118.8504z" fill-rule="nonzero"></path><path fill="#000000" d="m757.7192 456.48538c2.7816772 3.9279175 14.131226 -0.34655762 16.690247 23.567505c2.559082 23.914062 -9.458435 98.19791 -1.3359375 119.91684c8.122498 21.718933 47.17804 31.538269 50.07086 10.396606c2.8928223 -21.141602 -28.597107 -111.59952 -32.71393 -137.24637c-4.1167603 -25.64682 6.6776123 -13.862152 8.013123 -16.634583" fill-rule="nonzero"></path><path stroke="#5b0f00" stroke-width="2.0" stroke-linejoin="round" stroke-linecap="butt" d="m757.7192 456.48538c2.7816772 3.9279175 14.131226 -0.34655762 16.690247 23.567505c2.559082 23.914062 -9.458435 98.19791 -1.3359375 119.91684c8.122498 21.718933 47.17804 31.538269 50.07086 10.396606c2.8928223 -21.141602 -28.597107 -111.59952 -32.71393 -137.24637c-4.1167603 -25.64682 6.6776123 -13.862152 8.013123 -16.634583" fill-rule="nonzero"></path><path fill="#000000" fill-opacity="0.0" d="m669.93195 337.2075l0 0c-33.92859 -86.57391 -15.794373 -174.64337 40.503906 -196.70868l0 0c27.0354 -10.596115 59.435852 -4.2429504 90.07367 17.66188c30.637817 21.904846 57.003357 57.56703 73.29639 99.14128l0 0c33.92859 86.57388 15.794312 174.64337 -40.503906 196.70865l0 0c-56.29828 22.065308 -129.44153 -30.229248 -163.37006 -116.80313z" fill-rule="nonzero"></path><path stroke="#85200c" stroke-width="12.0" stroke-linejoin="round" stroke-linecap="butt" d="m669.93195 337.2075l0 0c-33.92859 -86.57391 -15.794373 -174.64337 40.503906 -196.70868l0 0c27.0354 -10.596115 59.435852 -4.2429504 90.07367 17.66188c30.637817 21.904846 57.003357 57.56703 73.29639 99.14128l0 0c33.92859 86.57388 15.794312 174.64337 -40.503906 196.70865l0 0c-56.29828 22.065308 -129.44153 -30.229248 -163.37006 -116.80313z" fill-rule="nonzero"></path></g></svg>

