<?xml version="1.0" standalone="yes"?>

<svg version="1.1" viewBox="0.0 0.0 960.0 720.0" fill="none" stroke="none" stroke-linecap="square" stroke-miterlimit="10" xmlns="http://www.w3.org/2000/svg" xmlns:xlink="http://www.w3.org/1999/xlink"><clipPath id="p.0"><path d="m0 0l960.0 0l0 720.0l-960.0 0l0 -720.0z" clip-rule="nonzero"></path></clipPath><g clip-path="url(#p.0)"><path fill="#000000" fill-opacity="0.0" d="m0 0l960.0 0l0 720.0l-960.0 0z" fill-rule="nonzero"></path><path fill="#000000" fill-opacity="0.0" d="m608.84515 190.26509l58.740173 85.44881" fill-rule="nonzero"></path><path stroke="#000000" stroke-width="24.0" stroke-linejoin="round" stroke-linecap="butt" d="m608.84515 190.26509l58.740173 85.44881" fill-rule="nonzero"></path><path fill="#000000" fill-opacity="0.0" d="m108.19836 136.1076l258.33072 -79.748024" fill-rule="nonzero"></path><path stroke="#cccccc" stroke-width="12.0" stroke-linejoin="round" stroke-linecap="butt" d="m108.19836 136.1076l258.33072 -79.748024" fill-rule="nonzero"></path><path fill="#000000" fill-opacity="0.0" d="m134.56319 169.65092l112.377945 -33.54332" fill-rule="nonzero"></path><path stroke="#cccccc" stroke-width="12.0" stroke-linejoin="round" stroke-linecap="butt" d="m134.56319 169.65092l112.377945 -33.54332" fill-rule="nonzero"></path><path fill="#000000" fill-opacity="0.0" d="m289.30072 385.78217l230.70868 -84.28348" fill-rule="nonzero"></path><path stroke="#cccccc" stroke-width="12.0" stroke-linejoin="round" stroke-linecap="butt" d="m289.30072 385.78217l230.70868 -84.28348" fill-rule="nonzero"></path><path fill="#000000" fill-opacity="0.0" d="m316.46347 429.68765l75.590546 -24.094482" fill-rule="nonzero"></path><path stroke="#cccccc" stroke-width="12.0" stroke-linejoin="round" stroke-linecap="butt" d="m316.46347 429.68765l75.590546 -24.094482" fill-rule="nonzero"></path><path fill="#000000" fill-opacity="0.0" d="m346.7023 475.98688l187.49606 -54.86615" fill-rule="nonzero"></path><path stroke="#cccccc" stroke-width="12.0" stroke-linejoin="round" stroke-linecap="butt" d="m346.7023 475.98688l187.49606 -54.86615" fill-rule="nonzero"></path><path fill="#000000" fill-opacity="0.0" d="m181.64456 217.74803l243.87402 -84.47244" fill-rule="nonzero"></path><path stroke="#cccccc" stroke-width="12.0" stroke-linejoin="round" stroke-linecap="butt" d="m181.64456 217.74803l243.87402 -84.47244" fill-rule="nonzero"></path><path fill="#000000" fill-opacity="0.0" d="m352.39465 577.25055l-330.2517 -454.1148l18.939352 -5.516266" fill-rule="nonzero"></path><path stroke="#000000" stroke-width="8.0" stroke-linejoin="round" stroke-linecap="butt" d="m352.39465 577.25055l-330.2517 -454.1148l18.939352 -5.516266" fill-rule="nonzero"></path><path fill="#000000" fill-opacity="0.0" d="m351.58127 580.20306l-345.89008 -442.35147l18.736483 -6.173126" fill-rule="nonzero"></path><path stroke="#000000" stroke-width="8.0" stroke-linejoin="round" stroke-linecap="butt" d="m351.58127 580.20306l-345.89008 -442.35147l18.736483 -6.173126" fill-rule="nonzero"></path><path fill="#000000" fill-opacity="0.0" d="m228.23248 293.83203l243.87402 -84.47246" fill-rule="nonzero"></path><path stroke="#cccccc" stroke-width="12.0" stroke-linejoin="round" stroke-linecap="butt" d="m228.23248 293.83203l243.87402 -84.47246" fill-rule="nonzero"></path><path fill="#000000" fill-opacity="0.0" d="m201.62619 254.12335l243.87402 -84.47244" fill-rule="nonzero"></path><path stroke="#cccccc" stroke-width="12.0" stroke-linejoin="round" stroke-linecap="butt" d="m201.62619 254.12335l243.87402 -84.47244" fill-rule="nonzero"></path><path fill="#000000" fill-opacity="0.0" d="m265.7863 335.3517l75.590546 -24.094482" fill-rule="nonzero"></path><path stroke="#cccccc" stroke-width="12.0" stroke-linejoin="round" stroke-linecap="butt" d="m265.7863 335.3517l75.590546 -24.094482" fill-rule="nonzero"></path><path fill="#000000" d="m733.7638 473.16516c2.7816772 3.9279175 14.131226 -0.34655762 16.690247 23.567505c2.559082 23.914062 -9.458435 98.19794 -1.3359375 119.91681c8.122498 21.718933 47.17804 31.538269 50.07086 10.3966675c2.8928223 -21.141663 -28.597107 -111.59955 -32.71393 -137.24637c-4.1167603 -25.64682 6.6776123 -13.862183 8.013123 -16.634613" fill-rule="nonzero"></path><path stroke="#5b0f00" stroke-width="2.0" stroke-linejoin="round" stroke-linecap="butt" d="m733.7638 473.16516c2.7816772 3.9279175 14.131226 -0.34655762 16.690247 23.567505c2.559082 23.914062 -9.458435 98.19794 -1.3359375 119.91681c8.122498 21.718933 47.17804 31.538269 50.07086 10.3966675c2.8928223 -21.141663 -28.597107 -111.59955 -32.71393 -137.24637c-4.1167603 -25.64682 6.6776123 -13.862183 8.013123 -16.634613" fill-rule="nonzero"></path><path fill="#000000" fill-opacity="0.0" d="m515.4173 255.64043l384.0 0l0 47.999985l-384.0 0z" fill-rule="nonzero"></path><path fill="#cc0000" d="m550.4329 416.27478q1.59375 0 3.015625 0.609375q1.4375 0.609375 2.484375 1.6875q1.0625 1.078125 1.671875 2.515625q0.609375 1.421875 0.609375 3.0625q0 1.59375 -0.609375 3.0q-0.609375 1.40625 -1.671875 2.46875q-1.046875 1.046875 -2.484375 1.65625q-1.421875 0.609375 -3.015625 0.609375q-1.640625 0 -3.046875 -0.609375q-1.40625 -0.609375 -2.46875 -1.65625q-1.046875 -1.0625 -1.65625 -2.46875q-0.609375 -1.40625 -0.609375 -3.0q0 -1.640625 0.609375 -3.0625q0.609375 -1.4375 1.65625 -2.515625q1.0625 -1.078125 2.46875 -1.6875q1.40625 -0.609375 3.046875 -0.609375zm31.875 -7.78125q0 -6.0 1.640625 -10.65625q1.640625 -4.671875 4.65625 -7.875q3.03125 -3.21875 7.265625 -4.875q4.25 -1.671875 9.453125 -1.671875q2.25 0 4.421875 0.28125q2.1875 0.28125 4.296875 0.890625l0 -19.78125l8.203125 0l0 66.234375l-7.3125 0l-0.28125 -8.90625q-3.421875 4.96875 -7.40625 7.359375q-3.984375 2.390625 -8.625 2.390625q-4.03125 0 -7.109375 -1.6875q-3.0625 -1.6875 -5.109375 -4.75q-2.03125 -3.078125 -3.0625 -7.390625q-1.03125 -4.3125 -1.03125 -9.5625zm8.34375 -0.515625q0 8.53125 2.5 12.734375q2.515625 4.1875 7.109375 4.1875q3.09375 0 6.53125 -2.765625q3.453125 -2.765625 7.25 -8.203125l0 -21.84375q-2.015625 -0.9375 -4.453125 -1.421875q-2.4375 -0.5 -4.828125 -0.5q-6.65625 0 -10.390625 4.3125q-3.71875 4.3125 -3.71875 13.5z" fill-rule="nonzero"></path><path fill="#cc0000" d="m697.9798 431.0404l-0.34375 -11.40625q-6.921875 6.84375 -14.0625 9.890625q-7.140625 3.03125 -14.984375 3.03125q-7.265625 0 -12.421875 -1.859375q-5.15625 -1.859375 -8.5 -5.109375q-3.328125 -3.25 -4.890625 -7.640625q-1.5625 -4.390625 -1.5625 -9.546875q0 -12.75 9.5 -19.96875q9.5 -7.234375 28.09375 -7.234375l17.5625 0l0 -7.421875q0 -7.53125 -4.8125 -12.046875q-4.8125 -4.515625 -14.703125 -4.515625q-7.171875 0 -14.140625 1.609375q-6.96875 1.59375 -14.40625 4.5625l0 -13.265625q2.796875 -1.015625 6.203125 -1.984375q3.421875 -0.96875 7.21875 -1.734375q3.8125 -0.765625 7.953125 -1.21875q4.140625 -0.46875 8.359375 -0.46875q7.6875 0 13.84375 1.6875q6.171875 1.6875 10.4375 5.15625q4.265625 3.453125 6.546875 8.703125q2.28125 5.234375 2.28125 12.328125l0 58.453125l-13.171875 0zm-1.609375 -38.609375l-18.65625 0q-5.5 0 -9.46875 1.109375q-3.96875 1.09375 -6.5 3.125q-2.53125 2.015625 -3.765625 4.859375q-1.21875 2.828125 -1.21875 6.375q0 2.4375 0.75 4.6875q0.765625 2.234375 2.453125 3.96875q1.6875 1.734375 4.390625 2.75q2.703125 1.0 6.59375 1.0q5.0625 0 11.609375 -3.078125q6.546875 -3.078125 13.8125 -9.75l0 -15.046875zm110.76538 37.421875q-4.984375 1.265625 -10.3125 1.8125q-5.3125 0.5625 -10.8125 0.5625q-15.96875 0 -23.828125 -7.21875q-7.84375 -7.234375 -7.84375 -22.1875l0 -44.265625l-23.734375 0l0 -12.328125l23.734375 0l0 -23.3125l14.6875 -3.796875l0 27.109375l38.109375 0l0 12.328125l-38.109375 0l0 43.09375q0 9.109375 4.859375 13.640625q4.859375 4.515625 14.328125 4.515625q4.046875 0 8.859375 -0.625q4.8125 -0.640625 10.0625 -2.0l0 12.671875z" fill-rule="nonzero"></path><path fill="#000000" fill-opacity="0.0" d="m359.3622 574.6457l-318.937 -466.44623l346.84515 -100.46457l209.55905 271.32022" fill-rule="nonzero"></path><path stroke="#000000" stroke-width="12.0" stroke-linejoin="round" stroke-linecap="butt" d="m359.3622 574.6457l-318.937 -466.44623l346.84515 -100.46457l209.55905 271.32022" fill-rule="nonzero"></path><path fill="#000000" fill-opacity="0.0" d="m611.1268 348.5082l0 0c-34.37213 -87.70456 -16.597473 -176.6906 39.700806 -198.75589l0 0c27.03534 -10.59613 59.520447 -4.0272675 90.3089 18.261505c30.788452 22.288773 57.358215 58.47168 73.86432 100.5889l0 0c34.37213 87.70456 16.597473 176.69058 -39.700806 198.75589l0 0c-56.29828 22.065308 -129.80109 -31.145844 -164.17322 -118.8504z" fill-rule="nonzero"></path><path stroke="#000000" stroke-width="12.0" stroke-linejoin="round" stroke-linecap="butt" d="m611.1268 348.5082l0 0c-34.37213 -87.70456 -16.597473 -176.6906 39.700806 -198.75589l0 0c27.03534 -10.59613 59.520447 -4.0272675 90.3089 18.261505c30.788452 22.288773 57.358215 58.47168 73.86432 100.5889l0 0c34.37213 87.70456 16.597473 176.69058 -39.700806 198.75589l0 0c-56.29828 22.065308 -129.80109 -31.145844 -164.17322 -118.8504z" fill-rule="nonzero"></path><path fill="#000000" fill-opacity="0.0" d="m613.93195 345.20746l0 0c-33.92859 -86.57388 -15.794312 -174.64336 40.503906 -196.70865l0 0c27.0354 -10.59613 59.435852 -4.2429657 90.07367 17.66188c30.637878 21.90483 57.003357 57.567017 73.29639 99.14128l0 0c33.92859 86.57388 15.794373 174.64334 -40.503906 196.70865l0 0c-56.29828 22.065308 -129.44153 -30.229248 -163.37006 -116.80316z" fill-rule="nonzero"></path><path stroke="#85200c" stroke-width="12.0" stroke-linejoin="round" stroke-linecap="butt" d="m613.93195 345.20746l0 0c-33.92859 -86.57388 -15.794312 -174.64336 40.503906 -196.70865l0 0c27.0354 -10.59613 59.435852 -4.2429657 90.07367 17.66188c30.637878 21.90483 57.003357 57.567017 73.29639 99.14128l0 0c33.92859 86.57388 15.794373 174.64334 -40.503906 196.70865l0 0c-56.29828 22.065308 -129.44153 -30.229248 -163.37006 -116.80316z" fill-rule="nonzero"></path></g></svg>

