<?xml version="1.0" standalone="yes"?>

<svg version="1.1" viewBox="0.0 0.0 222.0 412.0" fill="none" stroke="none" stroke-linecap="square" stroke-miterlimit="10" xmlns="http://www.w3.org/2000/svg" xmlns:xlink="http://www.w3.org/1999/xlink"><clipPath id="p.0"><path d="m0 0l222.0 0l0 412.0l-222.0 0l0 -412.0z" clip-rule="nonzero"></path></clipPath><g clip-path="url(#p.0)"><path fill="#000000" fill-opacity="0.0" d="m0 0l222.16273 0l0 412.88452l-222.16273 0z" fill-rule="nonzero"></path><path fill="#999999" d="m53.71566 409.13428l-50.197598 -344.43018l159.49626 -60.578133l54.245865 332.316z" fill-rule="nonzero"></path><path stroke="#000000" stroke-width="4.0" stroke-linejoin="round" stroke-linecap="butt" d="m53.71566 409.13428l-50.197598 -344.43018l159.49626 -60.578133l54.245865 332.316z" fill-rule="nonzero"></path><path fill="#cccccc" d="m14.439341 71.280716l135.9055 -47.874016l6.708664 9.448816l-135.90552 47.874016z" fill-rule="nonzero"></path><path fill="#cccccc" d="m23.940681 102.72152l135.90552 -47.874016l6.708664 9.448814l-135.90552 47.874016z" fill-rule="nonzero"></path><path fill="#cccccc" d="m23.940681 137.37178l135.90552 -47.874023l6.708664 9.448822l-135.90552 47.87401z" fill-rule="nonzero"></path><path fill="#cccccc" d="m39.08246 215.64323l135.90552 -47.87401l6.708664 9.448822l-135.90552 47.87401z" fill-rule="nonzero"></path><path fill="#cccccc" d="m31.940706 174.74951l135.90552 -47.874016l6.708664 9.448814l-135.90552 47.874023z" fill-rule="nonzero"></path><path fill="#cccccc" d="m51.50507 249.27l135.90552 -47.874023l6.708664 9.448822l-135.90552 47.87401z" fill-rule="nonzero"></path><path fill="#cccccc" d="m49.451515 284.64313l137.95276 -48.59842l5.574814 7.842514l-137.95276 48.598434z" fill-rule="nonzero"></path><path fill="#cccccc" d="m66.64685 362.1917l135.9055 -47.873993l6.708664 9.4487915l-135.90552 47.874023z" fill-rule="nonzero"></path><path fill="#cccccc" d="m59.505093 321.298l135.9055 -47.874023l6.708664 9.448822l-135.90552 47.874023z" fill-rule="nonzero"></path><path fill="#000000" fill-opacity="0.0" d="m-12.495062 -69.07612l384.0 0l0 48.000004l-384.0 0z" fill-rule="nonzero"></path><path fill="#ffffff" d="m30.129938 118.001976q-4.203125 -1.875 -8.640625 -3.265625q-4.4375 -1.40625 -8.640625 -2.8125q4.203125 -12.140625 11.671875 -23.8125q7.46875 -11.671875 18.437502 -21.015625q10.984375 -9.343746 25.687496 -15.171871q14.71875 -5.84375 33.40625 -5.84375q19.140625 0 35.953133 7.25q16.8125 7.234375 29.1875 19.609371q12.375 12.375 19.375 28.953125q7.015625 16.578125 7.015625 35.250008q0 25.21875 -12.375 44.609375q-12.375 19.375 -33.390625 34.3125q-7.9375 6.078125 -15.65625 10.75q-7.7031326 4.671875 -13.781258 10.515625q-6.0625 5.828125 -9.796875 14.703125q-3.734375 8.859375 -3.734375 22.875l0 36.421875l-19.609375 0l0 -45.296875q0 -14.46875 5.125 -23.578125q5.140625 -9.109375 13.3125 -16.109375q8.171875 -7.015625 18.671875 -13.3125q10.515633 -6.3125 21.734383 -15.640625q15.40625 -12.609375 22.640625 -27.78125q7.234375 -15.1875 7.234375 -32.46875q0 -15.406258 -5.375 -28.484383q-5.359375 -13.078125 -15.171875 -22.875q-9.796875 -9.8125 -22.875 -15.1875q-13.078133 -5.375 -28.484383 -5.375q-27.09375 0 -45.54687 14.015625q-18.4375 14.015625 -26.375002 38.765625zm64.90625 262.92188q-5.59375 0 -10.5 -4.4375q-4.90625 -4.4375 -4.90625 -10.984375q0 -6.53125 4.90625 -10.96875q4.90625 -4.4375 10.5 -4.4375q5.609375 0 10.28125 4.4375q4.671875 4.4375 4.671875 10.96875q0 6.546875 -4.671875 10.984375q-4.671875 4.4375 -10.28125 4.4375z" fill-rule="nonzero"></path></g></svg>

